<?xml version="1.0" encoding="utf-8"?>
<svg xmlns="http://www.w3.org/2000/svg" style="margin: auto; background: rgb(90, 92, 94); display: block; shape-rendering: auto;" width="280" height="250" preserveAspectRatio="xMidYMid">
<style type="text/css">
  text {
    text-anchor: middle; font-size: 80px; opacity: 0;
  }
</style>
<g style="transform-origin:140px 125px;transform:scale(1)">
<g transform="translate(140,125)">
  <g transform="translate(0,0)"><g class="path" style="transform: scale(0.91); transform-origin: -63.76px 2.48128px; animation: 0.568182s linear -0.3s infinite normal forwards running breath-32760947-2dbc-46db-bd9a-c4521b23f6c8;"><path d="M83.44 3.28L83.44 3.28L83.44 3.28Q85.52 3.28 87.44 1.04L87.44 1.04L88.64 2L88.64 2Q88.40 2.32 88 2.80L88 2.80L88 2.80Q87.60 3.28 86.04 4.08L86.04 4.08L86.04 4.08Q84.48 4.88 82.64 4.88L82.64 4.88L82.64 4.88Q73.68 4.88 73.68-2.88L73.68-2.88L73.68-2.88Q73.68-5.28 74.24-10L74.24-10L74.24-10Q70.40-8.80 67.36-8.80L67.36-8.80L67.36-8.80Q62-8.80 56.64-12.08L56.64-12.08L56.64-12.08Q53.52-6.72 50.80-2.92L50.80-2.92L50.80-2.92Q48.08 0.88 44.48 4.48L44.48 4.48L44.48 4.48Q37.04 11.76 26.52 11.76L26.52 11.76L26.52 11.76Q16 11.76 9.76 5.04L9.76 5.04L9.76 5.04Q4.24-1.12 4.24-9.96L4.24-9.96L4.24-9.96Q4.24-18.80 9.92-25.68L9.92-25.68L9.92-25.68Q15.60-32.56 24.64-32.56L24.64-32.56L24.64-32.56Q33.68-32.56 38.40-27.20L38.40-27.20L38.40-27.20Q39.52-25.76 40-25.04L40-25.04L40-25.04Q44.32-23.20 49.84-18.96L49.84-18.96L49.84-18.96Q54-15.60 56-14.32L56-14.32L56-14.32Q57.12-16.40 59.08-19.92L59.08-19.92L59.08-19.92Q61.04-23.44 62.08-25.28L62.08-25.28L62.08-25.28Q63.12-27.12 65.20-30.48L65.20-30.48L65.20-30.48Q67.28-33.84 68.60-35.56L68.60-35.56L68.60-35.56Q69.92-37.28 72.12-39.88L72.12-39.88L72.12-39.88Q74.32-42.48 76.16-43.76L76.16-43.76L76.16-43.76Q81.68-47.68 85.44-48.32L85.44-48.32L85.44-48.32Q87.52-48.64 88.96-48.64L88.96-48.64L88.96-48.64Q90.40-48.64 92.16-48.60L92.16-48.60L92.16-48.60Q93.92-48.56 97.12-47.68L97.12-47.68L96.72-46.16L96.72-46.16Q94.80-46.72 92.64-46.96L92.64-46.96L92.64-46.96Q84.64-15.52 83.44 3.28zM42.56-15.76L42.56-15.76L42.56-15.76Q42.56-9.84 39.16-5.28L39.16-5.28L39.16-5.28Q35.76-0.72 30-0.72L30-0.72L30-0.72Q26.24-0.72 23.88-2.96L23.88-2.96L23.88-2.96Q21.52-5.20 21.52-7.60L21.52-7.60L21.52-7.60Q21.52-10 22.24-11.56L22.24-11.56L22.24-11.56Q22.96-13.12 23.88-13.92L23.88-13.92L23.88-13.92Q24.80-14.72 25.92-15.20L25.92-15.20L25.92-15.20Q27.44-16 28.32-16L28.32-16L28.48-14.40L28.48-14.40Q26.48-14.40 24.80-12.48L24.80-12.48L24.80-12.48Q23.12-10.56 23.12-8.16L23.12-8.16L23.12-8.16Q23.12-5.76 25-4.04L25-4.04L25-4.04Q26.88-2.32 30-2.32L30-2.32L30-2.32Q35.12-2.32 38.08-6.32L38.08-6.32L38.08-6.32Q41.04-10.32 41.04-15.20L41.04-15.20L41.04-15.20Q41.04-20.08 39.04-23.68L39.04-23.68L39.04-23.68Q34.64-25.36 30.32-25.36L30.32-25.36L30.32-25.36Q22-25.36 18.56-17.60L18.56-17.60L17.04-18.08L17.04-18.08Q17.92-20.08 19.84-22.40L19.84-22.40L19.84-22.40Q23.60-26.96 30.32-26.96L30.32-26.96L30.32-26.96Q33.92-26.96 37.44-25.92L37.44-25.92L37.28-26.16L37.28-26.16Q32.88-30.96 24.60-30.96L24.60-30.96L24.60-30.96Q16.32-30.96 11.08-24.56L11.08-24.56L11.08-24.56Q5.84-18.16 5.84-9.88L5.84-9.88L5.84-9.88Q5.84-1.60 10.96 3.92L10.96 3.92L10.96 3.92Q16.72 10.16 27.04 10.16L27.04 10.16L27.04 10.16Q36.48 10.16 43.52 3.04L43.52 3.04L43.52 3.04Q47.04-0.40 49.64-4.08L49.64-4.08L49.64-4.08Q52.24-7.76 55.28-12.96L55.28-12.96L55.28-12.96Q52.56-14.72 48.68-17.80L48.68-17.80L48.68-17.80Q44.80-20.88 41.20-22.72L41.20-22.72L41.20-22.72Q42.56-19.36 42.56-15.76zM60.48-18.96L57.44-13.44L57.44-13.44Q62.56-10.40 66.84-10.40L66.84-10.40L66.84-10.40Q71.12-10.40 74.48-11.76L74.48-11.76L74.48-11.76Q76.40-25.28 81.68-45.36L81.68-45.36L81.68-45.36Q75.28-42.32 69.92-34.56L69.92-34.56L69.92-34.56Q66-28.96 60.48-18.96L60.48-18.96" fill="#290908" stroke="none" stroke-width="none" transform="translate(-114.44000244140625,20.921279907226562)" style="fill: rgb(41, 9, 8);"></path></g><g class="path" style="transform: scale(0.91); transform-origin: -1.84px -3.91872px; animation: 0.568182s linear -0.225s infinite normal forwards running breath-32760947-2dbc-46db-bd9a-c4521b23f6c8;"><path d="M111.20 0.72L111.20 0.72L111.20 0.72Q106.16 0.72 103.84-2.64L103.84-2.64L97.12 2.16L95.60 2.16L104.56-50.24L104.56-50.24Q102.16-50 100.56-48L100.56-48L99.36-48.96L99.36-48.96Q101.76-51.84 105.40-51.84L105.40-51.84L105.40-51.84Q109.04-51.84 111.04-50L111.04-50L111.04-50Q113.04-48.16 113.04-44.80L113.04-44.80L113.04-44.80Q113.04-44.16 112.88-42.72L112.88-42.72L112.88-42.72Q111.60-35.60 109.76-25.60L109.76-25.60L109.76-25.60Q113.12-31.04 118.48-31.04L118.48-31.04L118.48-31.04Q123.84-31.04 126.72-27.96L126.72-27.96L126.72-27.96Q129.60-24.88 129.60-19.52L129.60-19.52L129.60-19.52Q129.60-10.08 124.48-4.68L124.48-4.68L124.48-4.68Q119.36 0.72 111.20 0.72zM110.64-1.44L110.64-1.44L110.64-1.44Q115.04-1.44 117.80-7.56L117.80-7.56L117.80-7.56Q120.56-13.68 120.56-22.80L120.56-22.80L120.56-22.80Q120.56-26.48 119.80-27.84L119.80-27.84L119.80-27.84Q119.04-29.20 117.04-29.20L117.04-29.20L117.04-29.20Q115.04-29.20 112.92-26.80L112.92-26.80L112.92-26.80Q110.80-24.40 109.84-22.28L109.84-22.28L109.84-22.28Q108.88-20.16 108.88-19.84L108.88-19.84L108.72-19.84L108.72-19.84Q106.72-9.36 105.76-4L105.76-4L105.76-4Q107.12-1.44 110.64-1.44" fill="#290908" stroke="none" stroke-width="none" transform="translate(-114.44000244140625,20.921279907226562)" style="fill: rgb(73, 18, 18);"></path></g><g class="path" style="transform: scale(0.91); transform-origin: 34.76px 5.72128px; animation: 0.568182s linear -0.15s infinite normal forwards running breath-32760947-2dbc-46db-bd9a-c4521b23f6c8;"><path d="M146.08 0.72L146.08 0.72Q139.92 0.72 136.72-2.36L136.72-2.36L136.72-2.36Q133.52-5.44 133.52-10.12L133.52-10.12L133.52-10.12Q133.52-14.80 134.36-18.12L134.36-18.12L134.36-18.12Q135.20-21.44 137.12-24.52L137.12-24.52L137.12-24.52Q139.04-27.60 142.92-29.36L142.92-29.36L142.92-29.36Q146.80-31.12 152.60-31.12L152.60-31.12L152.60-31.12Q158.40-31.12 161.64-28.04L161.64-28.04L161.64-28.04Q164.88-24.96 164.88-19.60L164.88-19.60L164.88-19.60Q164.88-10.48 160.04-4.88L160.04-4.88L160.04-4.88Q155.20 0.72 146.08 0.72L146.08 0.72zM142.56-7.52L142.56-7.52L142.56-7.52Q142.56-1.12 146.28-1.12L146.28-1.12L146.28-1.12Q150-1.12 152.92-7.56L152.92-7.56L152.92-7.56Q155.84-14 155.84-22.88L155.84-22.88L155.84-22.88Q155.84-29.60 152.20-29.60L152.20-29.60L152.20-29.60Q148.56-29.60 145.56-23.48L145.56-23.48L145.56-23.48Q142.56-17.36 142.56-7.52" fill="#290908" stroke="none" stroke-width="none" transform="translate(-114.44000244140625,20.921279907226562)" style="fill: rgb(131, 26, 25);"></path></g><g class="path" style="transform: scale(0.91); transform-origin: 72px 5.72128px; animation: 0.568182s linear -0.075s infinite normal forwards running breath-32760947-2dbc-46db-bd9a-c4521b23f6c8;"><path d="M173.76-29.52L173.76-29.52L173.76-29.52Q171.84-29.52 169.76-27.28L169.76-27.28L168.56-28.24L168.56-28.24Q169.12-29.36 171.04-30.24L171.04-30.24L171.04-30.24Q172.96-31.12 175.28-31.12L175.28-31.12L175.28-31.12Q182.56-31.12 182.56-24.56L182.56-24.56L182.56-24.56Q182.56-21.76 181.12-14.56L181.12-14.56L181.12-14.56Q179.68-7.36 179.68-5.12L179.68-5.12L179.68-5.12Q179.68-1.68 182.96-1.68L182.96-1.68L182.96-1.68Q185.28-1.68 187.48-4.40L187.48-4.40L187.48-4.40Q189.68-7.12 191.28-11.92L191.28-11.92L194.64-30.40L194.64-30.40Q200.56-30.40 203.28-30.88L203.28-30.88L204.32-31.12L198.96-0.88L198.96-0.88Q201.36-1.12 202.96-3.12L202.96-3.12L204.16-2.16L204.16-2.16Q201.76 0.72 198.16 0.72L198.16 0.72L198.16 0.72Q194.56 0.72 192.56-1.04L192.56-1.04L192.56-1.04Q190.56-2.80 190.48-6L190.48-6L190.48-6Q187.12 0.72 180.56 0.72L180.56 0.72L180.56 0.72Q175.84 0.72 173.20-1.96L173.20-1.96L173.20-1.96Q170.56-4.64 170.56-9.36L170.56-9.36L170.56-9.36Q170.56-11.84 172.08-18.92L172.08-18.92L172.08-18.92Q173.60-26 173.76-29.52" fill="#290908" stroke="none" stroke-width="none" transform="translate(-114.44000244140625,20.921279907226562)" style="fill: rgb(194, 66, 41);"></path></g><g class="path" style="transform: scale(0.91); transform-origin: 106.84px -0.198719px; animation: 0.568182s linear 0s infinite normal forwards running breath-32760947-2dbc-46db-bd9a-c4521b23f6c8;"><path d="M209.60-30.40L213.68-30.40L215.84-42.24L215.84-42.24Q221.76-42.24 224.64-42.72L224.64-42.72L225.68-42.96L225.68-42.96Q224.56-37.36 223.20-30.40L223.20-30.40L233.12-30.40L232.96-28.96L222.96-28.96L222.96-28.96Q218.96-8.32 218.96-4.08L218.96-4.08L218.96-4.08Q218.96-1.52 221.68-1.52L221.68-1.52L221.68-1.52Q224.40-1.52 226.64-4.96L226.64-4.96L226.64-4.96Q228.88-8.40 229.84-12.40L229.84-12.40L231.28-11.92L231.28-11.92Q228.32 0.72 219.04 0.72L219.04 0.72L219.04 0.72Q215.20 0.72 212.64-1.40L212.64-1.40L212.64-1.40Q210.08-3.52 210.08-7.32L210.08-7.32L210.08-7.32Q210.08-11.12 213.36-28.96L213.36-28.96L209.44-28.96L209.60-30.40" fill="#290908" stroke="none" stroke-width="none" transform="translate(-114.44000244140625,20.921279907226562)" style="fill: rgb(221, 132, 55);"></path></g></g>
</g>
</g>
<style id="breath-32760947-2dbc-46db-bd9a-c4521b23f6c8" data-anikit="">@keyframes breath-32760947-2dbc-46db-bd9a-c4521b23f6c8
{
  0% {
    animation-timing-function: cubic-bezier(0.9647,0.2413,-0.0705,0.7911);
    transform: scale(0.9099999999999999);
  }
  51% {
    animation-timing-function: cubic-bezier(0.9226,0.2631,-0.0308,0.7628);
    transform: scale(1.02994);
  }
  100% {
    transform: scale(0.9099999999999999);
  }
}</style></svg>