<?xml version="1.0" encoding="utf-8"?>
<svg xmlns="http://www.w3.org/2000/svg" style="margin: auto; background: rgb(88, 83, 73); display: block; shape-rendering: auto;" width="280" height="250" preserveAspectRatio="xMidYMid">
<style type="text/css">
  text {
    text-anchor: middle; font-size: 54px; opacity: 0;
  }
</style>
<g style="transform-origin:140px 125px;transform:scale(1)">
<g transform="translate(140,125)">
  <g transform="translate(0,0)"><g class="path" style="transform: matrix(1, 0, 0, 1, 0, 0); transform-origin: -69.095px 2.43929px; animation: 4.54545s linear -2.57143s infinite normal forwards running bounce-0b980daf-66d3-4b5f-902d-8316e64271d3;"><path d="M69.01 4.43L69.71 5.35L69.71 5.35Q67.66 7.40 64.39 7.40L64.39 7.40L64.39 7.40Q61.13 7.40 59.18 5.26L59.18 5.26L59.18 5.26Q57.24 3.13 57.24-0.35L57.24-0.35L57.24-0.35Q57.24-3.83 58.48-8.37L58.48-8.37L60.91-16.36L60.91-16.36Q56.38-10.64 52.60-5.40L52.60-5.40L52.60-5.40Q45.14 4.91 42.50 8.42L42.50 8.42L41.53 8.15L39.42-17.98L35.10-10.10L35.10-10.10Q28.94 1.51 24.81 5.21L24.81 5.21L24.81 5.21Q20.68 8.91 13.82 8.91L13.82 8.91L13.82 8.91Q7.99 8.91 4.16 4.75L4.16 4.75L4.16 4.75Q1.13 1.35 1.13-3.40L1.13-3.40L1.13-3.40Q1.13-4.27 1.24-5.18L1.24-5.18L2.32-5.08L2.32-5.08Q2.21-4.21 2.21-3.40L2.21-3.40L2.21-3.40Q2.21 0.97 4.97 4.00L4.97 4.00L4.97 4.00Q8.48 7.83 13.82 7.83L13.82 7.83L13.82 7.83Q20.25 7.83 24.19 4.24L24.19 4.24L24.19 4.24Q28.13 0.65 34.13-10.58L34.13-10.58L43.85-28.24L43.85-28.24Q38.12-28.35 32.75-30.05L32.75-30.05L32.75-30.05Q27.38-31.75 23.14-31.75L23.14-31.75L23.14-31.75Q18.90-31.75 16.04-28.78L16.04-28.78L16.04-28.78Q13.18-25.81 13.18-21.11L13.18-21.11L12.10-21.11L12.10-21.11Q12.10-26.30 15.25-29.57L15.25-29.57L15.25-29.57Q18.41-32.83 23.44-32.83L23.44-32.83L23.44-32.83Q27.49-32.83 33.08-31.08L33.08-31.08L33.08-31.08Q38.66-29.32 45.14-29.32L45.14-29.32L47.41-0.16L48.49-1.67L48.49-1.67Q59.89-17.33 66.10-24.06L66.10-24.06L66.10-24.06Q72.31-30.78 76.14-30.78L76.14-30.78L76.14-29.70L76.14-29.70Q74.47-29.70 71.87-27.86L71.87-27.86L71.87-27.86Q71.50-26.68 69.34-19.63L69.34-19.63L69.34-19.63Q67.18-12.58 65.47-7.32L65.47-7.32L65.47-7.32Q63.77-2.05 63.77 1.30L63.77 1.30L63.77 1.30Q63.77 4.64 64.96 6.26L64.96 6.26L64.96 6.26Q66.10 6.26 67.09 5.80L67.09 5.80L67.09 5.80Q68.09 5.35 68.58 4.86L68.58 4.86L69.01 4.43" fill="#51cacc" stroke="none" stroke-width="none" transform="translate(-107.72998046875,14.399289855957031)" style="fill: rgb(81, 202, 204);"></path></g><g class="path" style="transform: matrix(1, 0, 0, 1, 0, 0); transform-origin: -22.785px 4.13929px; animation: 4.54545s linear -2.14286s infinite normal forwards running bounce-0b980daf-66d3-4b5f-902d-8316e64271d3;"><path d="M82.84 0.49L82.84 0.49Q78.68 0.49 76.52-1.59L76.52-1.59L76.52-1.59Q74.36-3.67 74.36-6.83L74.36-6.83L74.36-6.83Q74.36-9.99 74.93-12.23L74.93-12.23L74.93-12.23Q75.49-14.47 76.79-16.55L76.79-16.55L76.79-16.55Q78.08-18.63 80.70-19.82L80.70-19.82L80.70-19.82Q83.32-21.01 87.24-21.01L87.24-21.01L87.24-21.01Q91.15-21.01 93.34-18.93L93.34-18.93L93.34-18.93Q95.53-16.85 95.53-13.23L95.53-13.23L95.53-13.23Q95.53-7.07 92.26-3.29L92.26-3.29L92.26-3.29Q88.99 0.49 82.84 0.49L82.84 0.49zM80.46-5.08L80.46-5.08L80.46-5.08Q80.46-0.76 82.97-0.76L82.97-0.76L82.97-0.76Q85.48-0.76 87.45-5.10L87.45-5.10L87.45-5.10Q89.42-9.45 89.42-15.44L89.42-15.44L89.42-15.44Q89.42-19.98 86.97-19.98L86.97-19.98L86.97-19.98Q84.51-19.98 82.49-15.85L82.49-15.85L82.49-15.85Q80.46-11.72 80.46-5.08" fill="#51cacc" stroke="none" stroke-width="none" transform="translate(-107.72998046875,14.399289855957031)" style="fill: rgb(157, 248, 113);"></path></g><g class="path" style="transform: matrix(1, 0, 0, 1, 0, 0); transform-origin: 2.67502px -2.85071px; animation: 4.54545s linear -1.71429s infinite normal forwards running bounce-0b980daf-66d3-4b5f-902d-8316e64271d3;"><path d="M116.91 0.49L116.91 0.49L116.91 0.49Q112.16 0.49 111.73-3.56L111.73-3.56L111.73-3.56Q109.35 0.49 105.68 0.49L105.68 0.49L105.68 0.49Q102.01 0.49 100.06-1.59L100.06-1.59L100.06-1.59Q98.12-3.67 98.12-7.29L98.12-7.29L98.12-7.29Q98.12-13.66 101.14-17.33L101.14-17.33L101.14-17.33Q104.17-21.01 108.97-21.01L108.97-21.01L108.97-21.01Q111.73-21.01 113.24-19.33L113.24-19.33L113.24-19.33Q113.89-18.47 114.05-18.04L114.05-18.04L116.96-33.91L116.96-33.91Q115.34-33.75 114.26-32.40L114.26-32.40L113.45-33.05L113.45-33.05Q115.07-34.99 117.53-34.99L117.53-34.99L117.53-34.99Q119.99-34.99 121.34-33.75L121.34-33.75L121.34-33.75Q122.69-32.51 122.69-30.24L122.69-30.24L122.69-30.24Q122.69-29.81 122.58-28.84L122.58-28.84L122.58-28.84Q119.93-13.99 117.45-0.59L117.45-0.59L117.45-0.59Q119.07-0.76 120.15-2.11L120.15-2.11L120.96-1.46L120.96-1.46Q119.34 0.49 116.91 0.49zM104.22-5.08L104.22-5.08Q104.22-2.59 104.73-1.67L104.73-1.67L104.73-1.67Q105.25-0.76 106.35-0.76L106.35-0.76L106.35-0.76Q107.46-0.76 108.49-1.51L108.49-1.51L108.49-1.51Q109.51-2.27 110.21-3.46L110.21-3.46L110.21-3.46Q111.51-5.45 112.05-6.86L112.05-6.86L113.62-15.39L113.62-15.39Q113.51-17.12 112.48-18.55L112.48-18.55L112.48-18.55Q111.46-19.98 108.97-19.98L108.97-19.98L108.97-19.98Q107.24-19.98 105.73-14.90L105.73-14.90L105.73-14.90Q104.22-9.83 104.22-5.08L104.22-5.08" fill="#51cacc" stroke="none" stroke-width="none" transform="translate(-107.72998046875,14.399289855957031)" style="fill: rgb(224, 255, 119);"></path></g><g class="path" style="transform: matrix(1, 0, 0, 1, 0, 0); transform-origin: 28.32px 4.13929px; animation: 4.54545s linear -1.28571s infinite normal forwards running bounce-0b980daf-66d3-4b5f-902d-8316e64271d3;"><path d="M127.49-19.93L127.49-19.93L127.49-19.93Q126.20-19.93 124.79-18.41L124.79-18.41L123.98-19.06L123.98-19.06Q124.36-19.82 125.66-20.41L125.66-20.41L125.66-20.41Q126.95-21.01 128.52-21.01L128.52-21.01L128.52-21.01Q133.43-21.01 133.43-16.58L133.43-16.58L133.43-16.58Q133.43-14.69 132.46-9.83L132.46-9.83L132.46-9.83Q131.49-4.97 131.49-3.46L131.49-3.46L131.49-3.46Q131.49-1.13 133.70-1.13L133.70-1.13L133.70-1.13Q135.27-1.13 136.76-2.97L136.76-2.97L136.76-2.97Q138.24-4.81 139.32-8.05L139.32-8.05L141.59-20.52L141.59-20.52Q145.58-20.52 147.42-20.84L147.42-20.84L148.12-21.01L144.50-0.59L144.50-0.59Q146.12-0.76 147.20-2.11L147.20-2.11L148.01-1.46L148.01-1.46Q146.39 0.49 143.96 0.49L143.96 0.49L143.96 0.49Q141.53 0.49 140.18-0.70L140.18-0.70L140.18-0.70Q138.83-1.89 138.78-4.05L138.78-4.05L138.78-4.05Q136.51 0.49 132.08 0.49L132.08 0.49L132.08 0.49Q128.90 0.49 127.12-1.32L127.12-1.32L127.12-1.32Q125.33-3.13 125.33-6.32L125.33-6.32L125.33-6.32Q125.33-7.99 126.36-12.77L126.36-12.77L126.36-12.77Q127.39-17.55 127.49-19.93" fill="#51cacc" stroke="none" stroke-width="none" transform="translate(-107.72998046875,14.399289855957031)" style="fill: rgb(222, 157, 214);"></path></g><g class="path" style="transform: matrix(1, 0, 0, 1, 0, 0); transform-origin: 51.165px -2.85071px; animation: 4.54545s linear -0.857143s infinite normal forwards running bounce-0b980daf-66d3-4b5f-902d-8316e64271d3;"><path d="M160.97-1.94L160.97-1.94L160.97-1.94Q160.27-1.03 159.06-0.27L159.06-0.27L159.06-0.27Q157.84 0.49 155.90 0.49L155.90 0.49L155.90 0.49Q153.95 0.49 152.60-0.76L152.60-0.76L152.60-0.76Q151.25-2.00 151.25-4.27L151.25-4.27L151.25-4.27Q151.25-4.70 151.36-5.67L151.36-5.67L154.87-25.11L154.87-25.11Q155.84-30.46 157.55-32.72L157.55-32.72L157.55-32.72Q159.25-34.99 162.05-34.99L162.05-34.99L162.05-34.99Q164.00-34.99 165.27-33.53L165.27-33.53L165.27-33.53Q166.54-32.08 166.54-29.11L166.54-29.11L166.54-29.11Q166.54-26.14 164.24-20.63L164.24-20.63L164.24-20.63Q161.95-15.12 161.95-12.58L161.95-12.58L160.97-12.58L160.97-12.58Q160.97-15.44 163.24-20.76L163.24-20.76L163.24-20.76Q165.51-26.08 165.51-29.27L165.51-29.27L165.51-29.27Q165.51-31.21 164.62-32.62L164.62-32.62L164.62-32.62Q163.73-34.02 162.43-34.02L162.43-34.02L162.43-34.02Q162.38-32.62 160.57-21.41L160.57-21.41L160.57-21.41Q158.76-10.21 156.98-0.59L156.98-0.59L156.98-0.59Q158.49-0.59 159.79-2.16L159.79-2.16L159.79-2.16Q161.08-3.73 161.62-5.29L161.62-5.29L162.22-6.91L163.19-6.48L163.19-6.48Q163.03-5.72 162.35-4.29L162.35-4.29L162.35-4.29Q161.68-2.86 160.97-1.94" fill="#51cacc" stroke="none" stroke-width="none" transform="translate(-107.72998046875,14.399289855957031)" style="fill: rgb(255, 112, 142);"></path></g><g class="path" style="transform: matrix(1, 0, 0, 1, 0, 0); transform-origin: 67.66px 4.13929px; animation: 4.54545s linear -0.428571s infinite normal forwards running bounce-0b980daf-66d3-4b5f-902d-8316e64271d3;"><path d="M177.77-21.01L177.77-21.01L177.77-21.01Q184.63-21.01 184.63-15.55L184.63-15.55L184.63-15.55Q184.63-12.15 181.41-10.39L181.41-10.39L181.41-10.39Q178.20-8.64 172.26-8.59L172.26-8.59L172.26-8.59Q172.15-6.64 172.15-5.51L172.15-5.51L172.15-5.51Q172.15-3.08 173.26-1.92L173.26-1.92L173.26-1.92Q174.37-0.76 176.04-0.76L176.04-0.76L176.04-0.76Q177.71-0.76 179.09-1.40L179.09-1.40L179.09-1.40Q180.47-2.05 181.28-2.94L181.28-2.94L181.28-2.94Q182.09-3.83 182.68-4.81L182.68-4.81L182.68-4.81Q183.76-6.59 183.76-7.07L183.76-7.07L184.73-6.64L184.73-6.64Q184.57-5.78 183.76-4.35L183.76-4.35L183.76-4.35Q182.95-2.92 181.98-2.00L181.98-2.00L181.98-2.00Q181.01-1.08 179.12-0.30L179.12-0.30L179.12-0.30Q177.23 0.49 174.91 0.49L174.91 0.49L174.91 0.49Q170.53 0.49 168.29-1.59L168.29-1.59L168.29-1.59Q166.05-3.67 166.05-7.29L166.05-7.29L166.05-7.29Q166.05-13.72 169.24-17.36L169.24-17.36L169.24-17.36Q172.42-21.01 177.77-21.01zM183.28-15.55L183.28-15.55Q183.28-17.33 182.22-18.50L182.22-18.50L182.22-18.50Q181.17-19.66 179.09-19.66L179.09-19.66L179.09-19.66Q177.01-19.66 175.04-17.17L175.04-17.17L175.04-17.17Q173.07-14.69 172.42-9.83L172.42-9.83L172.42-9.83Q183.28-9.88 183.28-15.55L183.28-15.55" fill="#51cacc" stroke="none" stroke-width="none" transform="translate(-107.72998046875,14.399289855957031)" style="fill: rgb(81, 202, 204);"></path></g><g class="path" style="transform: matrix(1, 0, 0, 1, 0, 0); transform-origin: 98.415px 8.37429px; animation: 4.54545s linear 0s infinite normal forwards running bounce-0b980daf-66d3-4b5f-902d-8316e64271d3;"><path d="M207.79-7.51L207.79-7.51L207.79-7.51Q213.95-7.02 213.95-1.35L213.95-1.35L213.95-1.35Q213.95 3.08 210.19 6.02L210.19 6.02L210.19 6.02Q206.44 8.96 201.74 8.96L201.74 8.96L201.74 8.96Q195.70 8.96 195.70 3.94L195.70 3.94L196.83 4.00L196.83 4.00Q196.83 6.05 198.26 6.97L198.26 6.97L198.26 6.97Q199.69 7.88 201.74 7.88L201.74 7.88L201.74 7.88Q205.25 7.88 207.17 5.43L207.17 5.43L207.17 5.43Q209.09 2.97 209.09-1.03L209.09-1.03L209.09-1.03Q209.09-3.51 208.31-4.94L208.31-4.94L208.31-4.94Q207.52-6.37 206.23-6.37L206.23-6.37L204.71-6.26L204.39-7.34L204.39-7.34Q206.44-8.05 207.50-8.51L207.50-8.51L207.50-8.51Q208.55-8.96 209.68-9.83L209.68-9.83L209.68-9.83Q211.68-11.50 211.68-15.23L211.68-15.23L211.68-15.23Q211.68-17.17 210.55-18.14L210.55-18.14L210.55-18.14Q209.41-19.12 208.12-19.12L208.12-19.12L208.12-19.12Q208.01-19.12 207.95-19.12L207.95-19.12L207.95-19.12Q206.71-19.12 205.39-18.17L205.39-18.17L205.39-18.17Q204.07-17.23 203.44-16.47L203.44-16.47L203.44-16.47Q202.82-15.71 202.72-15.44L202.72-15.44L201.80-15.93L201.80-15.93Q202.18-16.69 203.12-17.66L203.12-17.66L203.12-17.66Q204.07-18.63 205.09-19.33L205.09-19.33L205.09-19.33Q207.68-21.01 210.76-21.01L210.76-21.01L210.76-21.01Q216.59-21.01 216.59-16.52L216.59-16.52L216.59-16.52Q216.59-13.55 213.97-11.26L213.97-11.26L213.97-11.26Q211.36-8.96 207.79-7.51" fill="#51cacc" stroke="none" stroke-width="none" transform="translate(-107.72998046875,14.399289855957031)" style="fill: rgb(157, 248, 113);"></path></g></g>
</g>
</g>
<style id="bounce-0b980daf-66d3-4b5f-902d-8316e64271d3" data-anikit="">@keyframes bounce-0b980daf-66d3-4b5f-902d-8316e64271d3
{
  0% {
    animation-timing-function: cubic-bezier(0.1361,0.2514,0.2175,0.8786);
    transform: translate(0,0px) scaleY(1);
  }
  37% {
    animation-timing-function: cubic-bezier(0.7674,0.1844,0.8382,0.7157);
    transform: translate(0,-39.96px) scaleY(1);
  }
  72% {
    animation-timing-function: cubic-bezier(0.1118,0.2149,0.2172,0.941);
    transform: translate(0,0px) scaleY(1);
  }
  87% {
    animation-timing-function: cubic-bezier(0.7494,0.2259,0.8209,0.6963);
    transform: translate(0,19.900000000000002px) scaleY(0.602);
  }
  100% {
    transform: translate(0,0px) scaleY(1);
  }
}</style></svg>