<?xml version="1.0" encoding="utf-8"?>
<svg xmlns="http://www.w3.org/2000/svg" style="margin: auto; background: rgb(132, 138, 143); display: block; shape-rendering: auto;" width="280" height="250" preserveAspectRatio="xMidYMid">
<style type="text/css">
  text {
    text-anchor: middle; font-size: 86px; opacity: 0;
  }
</style>
<g style="transform-origin:140px 125px;transform:scale(1)">
<g transform="translate(140,125)">
  <g transform="translate(0,0)"><g class="path" style="transform: scale(0.91); transform-origin: -63.21px -6.9461px; animation: 0.568182s linear -0.3125s infinite normal forwards running breath-a34753d7-9f84-46b9-9330-fdca8c53805a;"><path d="M41.80-47.56L41.80-47.56L41.80-47.56Q35.00-50.48 27.05-50.48L27.05-50.48L27.05-50.48Q19.09-50.48 14.15-45.41L14.15-45.41L14.15-45.41Q9.20-40.33 9.20-32.16L9.20-32.16L7.31-32.16L7.31-32.16Q7.31-41.11 12.81-46.74L12.81-46.74L12.81-46.74Q18.32-52.37 26.92-52.37L26.92-52.37L26.92-52.37Q33.80-52.37 41.80-49.71L41.80-49.71L41.80-49.71Q51.00-46.35 61.75-46.35L61.75-46.35L61.75-44.55L61.75-44.55Q55.30-44.55 51.43-45.15L51.43-45.15L51.43-45.15Q50.40-40.85 48.42-33.24L48.42-33.24L48.42-33.24Q46.44-25.63 45.67-21.63L45.67-21.63L45.67-21.63Q44.89-17.63 44.89-13.42L44.89-13.42L44.89-13.42Q44.89-9.20 47.77-6.49L47.77-6.49L47.77-6.49Q50.65-3.78 55.21-3.78L55.21-3.78L55.21-3.78Q59.77-3.78 62.82-6.84L62.82-6.84L62.82-6.84Q65.88-9.89 67.34-13.50L67.34-13.50L77.49-57.19L79.29-57.19L67.25-5.50L67.25-5.50Q66.48-2.32 66.48-1.20L66.48-1.20L66.48-1.20Q66.48 2.41 69.83 2.41L69.83 2.41L69.83 2.41Q72.24 2.41 74.05-0.09L74.05-0.09L75.25 0.95L75.25 0.95Q74.65 2.06 73.10 3.05L73.10 3.05L73.10 3.05Q71.55 4.04 69.36 4.04L69.36 4.04L69.36 4.04Q67.17 4.04 65.92 2.58L65.92 2.58L65.92 2.58Q64.67 1.12 64.67-0.95L64.67-0.95L65.70-6.62L66.13-8.60L66.13-8.60Q63.81-4.99 59.90-2.11L59.90-2.11L59.90-2.11Q55.99 0.77 51.26 0.77L51.26 0.77L51.26 0.77Q43.34 0.77 39.13-3.40L39.13-3.40L39.13-3.40Q34.92-7.57 34.92-14.71L34.92-14.71L34.92-14.71Q34.92-20.38 36.12-25.28L36.12-25.28L36.12-25.28Q37.32-30.19 39.04-36.77L39.04-36.77L39.04-36.77Q40.76-43.34 41.80-47.56" fill="#3c0f0f" stroke="none" stroke-width="none" transform="translate(-106.510009765625,19.628901952107743)" style="fill: rgb(60, 15, 15);"></path></g><g class="path" style="transform: scale(0.91); transform-origin: -5.24501px 3.2889px; animation: 0.568182s linear -0.25s infinite normal forwards running breath-a34753d7-9f84-46b9-9330-fdca8c53805a;"><path d="M114.98-0.95L114.98-0.95L114.98-0.95Q117.05-0.95 119.28-3.35L119.28-3.35L120.57-2.32L120.57-2.32Q119.97-1.12 117.91-0.17L117.91-0.17L117.91-0.17Q115.84 0.77 113.35 0.77L113.35 0.77L113.35 0.77Q105.52 0.77 105.52-6.28L105.52-6.28L105.52-6.28Q105.52-9.29 107.07-17.03L107.07-17.03L107.07-17.03Q108.62-24.77 108.62-27.18L108.62-27.18L108.62-27.18Q108.62-30.87 105.09-30.87L105.09-30.87L105.09-30.87Q102.25-30.87 99.63-27.18L99.63-27.18L99.63-27.18Q97.01-23.48 95.29-17.03L95.29-17.03L92.36-0.95L92.36-0.95Q95.03-1.20 96.75-3.35L96.75-3.35L98.04-2.32L98.04-2.32Q95.46 0.77 91.59 0.77L91.59 0.77L91.59 0.77Q87.72 0.77 85.53-1.20L85.53-1.20L85.53-1.20Q83.33-3.18 83.33-6.36L83.33-6.36L83.33-6.36Q83.33-7.57 84.71-15.82L84.71-15.82L87.55-31.73L87.55-31.73Q84.97-31.48 83.25-29.33L83.25-29.33L81.96-30.36L81.96-30.36Q84.54-33.45 88.45-33.45L88.45-33.45L88.45-33.45Q92.36-33.45 94.51-31.48L94.51-31.48L94.51-31.48Q96.66-29.50 96.66-25.89L96.66-25.89L96.66-25.37L96.66-25.37Q100.19-33.45 107.67-33.45L107.67-33.45L107.67-33.45Q112.75-33.45 115.58-30.57L115.58-30.57L115.58-30.57Q118.42-27.69 118.42-22.62L118.42-22.62L118.42-22.62Q118.42-19.95 116.79-12.34L116.79-12.34L116.79-12.34Q115.15-4.73 114.98-0.95" fill="#3c0f0f" stroke="none" stroke-width="none" transform="translate(-106.510009765625,19.628901952107743)" style="fill: rgb(249, 26, 16);"></path></g><g class="path" style="transform: scale(0.91); transform-origin: 26.835px 3.2889px; animation: 0.568182s linear -0.1875s infinite normal forwards running breath-a34753d7-9f84-46b9-9330-fdca8c53805a;"><path d="M140.52-2.32L140.52-2.32Q137.94 0.77 134.07 0.77L134.07 0.77L134.07 0.77Q130.20 0.77 128.01-1.20L128.01-1.20L128.01-1.20Q125.82-3.18 125.82-6.36L125.82-6.36L125.82-6.36Q125.82-7.48 127.19-15.74L127.19-15.74L130.03-31.13L126.42-31.13L126.59-32.68L130.29-32.68L130.29-32.68Q136.65-32.68 139.66-33.20L139.66-33.20L140.87-33.45L134.93-0.95L134.93-0.95Q137.51-1.20 139.23-3.35L139.23-3.35L140.52-2.32" fill="#3c0f0f" stroke="none" stroke-width="none" transform="translate(-106.510009765625,19.628901952107743)" style="fill: rgb(228, 107, 67);"></path></g><g class="path" style="transform: scale(0.91); transform-origin: 30.875px -26.5061px; animation: 0.568182s linear -0.125s infinite normal forwards running breath-a34753d7-9f84-46b9-9330-fdca8c53805a;"><path d="M132.96-41.71L132.96-41.71L132.96-41.71Q131.15-43.52 131.15-46.10L131.15-46.10L131.15-46.10Q131.15-48.68 132.96-50.53L132.96-50.53L132.96-50.53Q134.76-52.37 137.34-52.37L137.34-52.37L137.34-52.37Q139.92-52.37 141.77-50.53L141.77-50.53L141.77-50.53Q143.62-48.68 143.62-46.10L143.62-46.10L143.62-46.10Q143.62-43.52 141.77-41.71L141.77-41.71L141.77-41.71Q139.92-39.90 137.34-39.90L137.34-39.90L137.34-39.90Q134.76-39.90 132.96-41.71" fill="#3c0f0f" stroke="none" stroke-width="none" transform="translate(-106.510009765625,19.628901952107743)" style="fill: rgb(237, 177, 149);"></path></g><g class="path" style="transform: scale(0.91); transform-origin: 52.42px -3.0761px; animation: 0.568182s linear -0.0625s infinite normal forwards running breath-a34753d7-9f84-46b9-9330-fdca8c53805a;"><path d="M146.37-32.68L150.76-32.68L153.08-45.41L153.08-45.41Q159.44-45.41 162.54-45.92L162.54-45.92L163.66-46.18L163.66-46.18Q162.45-40.16 160.99-32.68L160.99-32.68L171.66-32.68L171.48-31.13L160.73-31.13L160.73-31.13Q156.43-8.94 156.43-4.39L156.43-4.39L156.43-4.39Q156.43-1.63 159.36-1.63L159.36-1.63L159.36-1.63Q162.28-1.63 164.69-5.33L164.69-5.33L164.69-5.33Q167.10-9.03 168.13-13.33L168.13-13.33L169.68-12.81L169.68-12.81Q166.50 0.77 156.52 0.77L156.52 0.77L156.52 0.77Q152.39 0.77 149.64-1.51L149.64-1.51L149.64-1.51Q146.89-3.78 146.89-7.87L146.89-7.87L146.89-7.87Q146.89-11.95 150.41-31.13L150.41-31.13L146.20-31.13L146.37-32.68" fill="#3c0f0f" stroke="none" stroke-width="none" transform="translate(-106.510009765625,19.628901952107743)" style="fill: rgb(42, 167, 201);"></path></g><g class="path" style="transform: scale(0.91); transform-origin: 98.085px 3.0739px; animation: 0.568182s linear 0s infinite normal forwards running breath-a34753d7-9f84-46b9-9330-fdca8c53805a;"><path d="M216.29 0.34L188.86 0.34L188.86-1.38L188.86-1.38Q192.12-3.61 202.19-9.63L202.19-9.63L202.19-9.63Q208.38-13.59 210.10-16.25L210.10-16.25L210.10-16.25Q211.82-18.92 211.82-22.58L211.82-22.58L211.82-22.58Q211.82-26.23 210.06-28.25L210.06-28.25L210.06-28.25Q208.29-30.27 205.71-30.27L205.71-30.27L205.71-30.27Q203.13-30.27 200.72-28.38L200.72-28.38L200.72-28.38Q198.32-26.49 197.16-24.90L197.16-24.90L197.16-24.90Q195.99-23.31 195.82-22.88L195.82-22.88L194.45-23.74L194.45-23.74Q195.56-25.80 198.06-28.29L198.06-28.29L198.06-28.29Q203.05-33.45 211.04-33.45L211.04-33.45L211.04-33.45Q220.33-33.45 220.33-25.46L220.33-25.46L220.33-25.46Q220.33-20.90 216.38-17.29L216.38-17.29L216.38-17.29Q212.42-13.67 202.62-7.74L202.62-7.74L219.21-7.74L216.29 0.34" fill="#3c0f0f" stroke="none" stroke-width="none" transform="translate(-106.510009765625,19.628901952107743)" style="fill: rgb(6, 98, 141);"></path></g></g>
</g>
</g>
<style id="breath-a34753d7-9f84-46b9-9330-fdca8c53805a" data-anikit="">@keyframes breath-a34753d7-9f84-46b9-9330-fdca8c53805a
{
  0% {
    animation-timing-function: cubic-bezier(0.9647,0.2413,-0.0705,0.7911);
    transform: scale(0.9099999999999999);
  }
  51% {
    animation-timing-function: cubic-bezier(0.9226,0.2631,-0.0308,0.7628);
    transform: scale(1.02994);
  }
  100% {
    transform: scale(0.9099999999999999);
  }
}</style></svg>