<?xml version="1.0" encoding="utf-8"?>
<svg xmlns="http://www.w3.org/2000/svg" style="margin: auto; background: rgb(90, 92, 94); display: block; shape-rendering: auto;" width="280" height="250" preserveAspectRatio="xMidYMid">
<style type="text/css">
  text {
    text-anchor: middle; font-size: 80px; opacity: 0;
  }
</style>
<g style="transform-origin:140px 125px;transform:scale(1)">
<g transform="translate(140,125)">
  <g transform="translate(0,0)"><g class="path" style="transform: scale(0.91); transform-origin: -73.8px -6.18035px; animation: 0.568182s linear -0.321429s infinite normal forwards running breath-32760947-2dbc-46db-bd9a-c4521b23f6c8;"><path d="M38.88-44.24L38.88-44.24L38.88-44.24Q32.56-46.96 25.16-46.96L25.16-46.96L25.16-46.96Q17.76-46.96 13.16-42.24L13.16-42.24L13.16-42.24Q8.56-37.52 8.56-29.92L8.56-29.92L6.80-29.92L6.80-29.92Q6.80-38.24 11.92-43.48L11.92-43.48L11.92-43.48Q17.04-48.72 25.04-48.72L25.04-48.72L25.04-48.72Q31.44-48.72 38.88-46.24L38.88-46.24L38.88-46.24Q47.44-43.12 57.44-43.12L57.44-43.12L57.44-41.44L57.44-41.44Q51.44-41.44 47.84-42L47.84-42L47.84-42Q46.88-38 45.04-30.92L45.04-30.92L45.04-30.92Q43.20-23.84 42.48-20.12L42.48-20.12L42.48-20.12Q41.76-16.40 41.76-12.48L41.76-12.48L41.76-12.48Q41.76-8.56 44.44-6.04L44.44-6.04L44.44-6.04Q47.12-3.52 51.36-3.52L51.36-3.52L51.36-3.52Q55.60-3.52 58.44-6.36L58.44-6.36L58.44-6.36Q61.28-9.20 62.64-12.56L62.64-12.56L72.08-53.20L73.76-53.20L62.56-5.12L62.56-5.12Q61.84-2.16 61.84-1.12L61.84-1.12L61.84-1.12Q61.84 2.24 64.96 2.24L64.96 2.24L64.96 2.24Q67.20 2.24 68.88-0.08L68.88-0.08L70 0.88L70 0.88Q69.44 1.92 68 2.84L68 2.84L68 2.84Q66.56 3.76 64.52 3.76L64.52 3.76L64.52 3.76Q62.48 3.76 61.32 2.40L61.32 2.40L61.32 2.40Q60.16 1.04 60.16-0.88L60.16-0.88L61.12-6.16L61.52-8L61.52-8Q59.36-4.64 55.72-1.96L55.72-1.96L55.72-1.96Q52.08 0.72 47.68 0.72L47.68 0.72L47.68 0.72Q40.32 0.72 36.40-3.16L36.40-3.16L36.40-3.16Q32.48-7.04 32.48-13.68L32.48-13.68L32.48-13.68Q32.48-18.96 33.60-23.52L33.60-23.52L33.60-23.52Q34.72-28.08 36.32-34.20L36.32-34.20L36.32-34.20Q37.92-40.32 38.88-44.24" fill="#290908" stroke="none" stroke-width="none" transform="translate(-114.08001708984375,18.539656546456474)" style="fill: rgb(41, 9, 8);"></path></g><g class="path" style="transform: scale(0.91); transform-origin: -19.88px 3.33965px; animation: 0.568182s linear -0.267857s infinite normal forwards running breath-32760947-2dbc-46db-bd9a-c4521b23f6c8;"><path d="M106.96-0.88L106.96-0.88L106.96-0.88Q108.88-0.88 110.96-3.12L110.96-3.12L112.16-2.16L112.16-2.16Q111.60-1.04 109.68-0.16L109.68-0.16L109.68-0.16Q107.76 0.72 105.44 0.72L105.44 0.72L105.44 0.72Q98.16 0.72 98.16-5.84L98.16-5.84L98.16-5.84Q98.16-8.64 99.60-15.84L99.60-15.84L99.60-15.84Q101.04-23.04 101.04-25.28L101.04-25.28L101.04-25.28Q101.04-28.72 97.76-28.72L97.76-28.72L97.76-28.72Q95.12-28.72 92.68-25.28L92.68-25.28L92.68-25.28Q90.24-21.84 88.64-15.84L88.64-15.84L85.92-0.88L85.92-0.88Q88.40-1.12 90-3.12L90-3.12L91.20-2.16L91.20-2.16Q88.80 0.72 85.20 0.72L85.20 0.72L85.20 0.72Q81.60 0.72 79.56-1.12L79.56-1.12L79.56-1.12Q77.52-2.96 77.52-5.92L77.52-5.92L77.52-5.92Q77.52-7.04 78.80-14.72L78.80-14.72L81.44-29.52L81.44-29.52Q79.04-29.28 77.44-27.28L77.44-27.28L76.24-28.24L76.24-28.24Q78.64-31.12 82.28-31.12L82.28-31.12L82.28-31.12Q85.92-31.12 87.92-29.28L87.92-29.28L87.92-29.28Q89.92-27.44 89.92-24.08L89.92-24.08L89.92-23.60L89.92-23.60Q93.20-31.12 100.16-31.12L100.16-31.12L100.16-31.12Q104.88-31.12 107.52-28.44L107.52-28.44L107.52-28.44Q110.16-25.76 110.16-21.04L110.16-21.04L110.16-21.04Q110.16-18.56 108.64-11.48L108.64-11.48L108.64-11.48Q107.12-4.40 106.96-0.88" fill="#290908" stroke="none" stroke-width="none" transform="translate(-114.08001708984375,18.539656546456474)" style="fill: rgb(73, 18, 18);"></path></g><g class="path" style="transform: scale(0.91); transform-origin: 9.95998px 3.33965px; animation: 0.568182s linear -0.214286s infinite normal forwards running breath-32760947-2dbc-46db-bd9a-c4521b23f6c8;"><path d="M130.72-2.16L130.72-2.16Q128.32 0.72 124.72 0.72L124.72 0.72L124.72 0.72Q121.12 0.72 119.08-1.12L119.08-1.12L119.08-1.12Q117.04-2.96 117.04-5.92L117.04-5.92L117.04-5.92Q117.04-6.96 118.32-14.64L118.32-14.64L120.96-28.96L117.60-28.96L117.76-30.40L121.20-30.40L121.20-30.40Q127.12-30.40 129.92-30.88L129.92-30.88L131.04-31.12L125.52-0.88L125.52-0.88Q127.92-1.12 129.52-3.12L129.52-3.12L130.72-2.16" fill="#290908" stroke="none" stroke-width="none" transform="translate(-114.08001708984375,18.539656546456474)" style="fill: rgb(131, 26, 25);"></path></g><g class="path" style="transform: scale(0.91); transform-origin: 13.72px -24.3803px; animation: 0.568182s linear -0.160714s infinite normal forwards running breath-32760947-2dbc-46db-bd9a-c4521b23f6c8;"><path d="M123.68-38.80L123.68-38.80L123.68-38.80Q122-40.48 122-42.88L122-42.88L122-42.88Q122-45.28 123.68-47L123.68-47L123.68-47Q125.36-48.72 127.76-48.72L127.76-48.72L127.76-48.72Q130.16-48.72 131.88-47L131.88-47L131.88-47Q133.60-45.28 133.60-42.88L133.60-42.88L133.60-42.88Q133.60-40.48 131.88-38.80L131.88-38.80L131.88-38.80Q130.16-37.12 127.76-37.12L127.76-37.12L127.76-37.12Q125.36-37.12 123.68-38.80" fill="#290908" stroke="none" stroke-width="none" transform="translate(-114.08001708984375,18.539656546456474)" style="fill: rgb(194, 66, 41);"></path></g><g class="path" style="transform: scale(0.91); transform-origin: 33.76px -2.58034px; animation: 0.568182s linear -0.107143s infinite normal forwards running breath-32760947-2dbc-46db-bd9a-c4521b23f6c8;"><path d="M136.16-30.40L140.24-30.40L142.40-42.24L142.40-42.24Q148.32-42.24 151.20-42.72L151.20-42.72L152.24-42.96L152.24-42.96Q151.12-37.36 149.76-30.40L149.76-30.40L159.68-30.40L159.52-28.96L149.52-28.96L149.52-28.96Q145.52-8.32 145.52-4.08L145.52-4.08L145.52-4.08Q145.52-1.52 148.24-1.52L148.24-1.52L148.24-1.52Q150.96-1.52 153.20-4.96L153.20-4.96L153.20-4.96Q155.44-8.40 156.40-12.40L156.40-12.40L157.84-11.92L157.84-11.92Q154.88 0.72 145.60 0.72L145.60 0.72L145.60 0.72Q141.76 0.72 139.20-1.40L139.20-1.40L139.20-1.40Q136.64-3.52 136.64-7.32L136.64-7.32L136.64-7.32Q136.64-11.12 139.92-28.96L139.92-28.96L136-28.96L136.16-30.40" fill="#290908" stroke="none" stroke-width="none" transform="translate(-114.08001708984375,18.539656546456474)" style="fill: rgb(221, 132, 55);"></path></g><g class="path" style="transform: scale(0.91); transform-origin: 74.2px 2.97966px; animation: 0.568182s linear -0.0535714s infinite normal forwards running breath-32760947-2dbc-46db-bd9a-c4521b23f6c8;"><path d="M181.04-27.52L198.88-31.12L187.12 0L177.68 0L187.12-27.12L181.44-25.92L181.04-27.52" fill="#290908" stroke="none" stroke-width="none" transform="translate(-114.08001708984375,18.539656546456474)" style="fill: rgb(238, 180, 64);"></path></g><g class="path" style="transform: scale(0.91); transform-origin: 103.92px -3.34035px; animation: 0.568182s linear 0s infinite normal forwards running breath-32760947-2dbc-46db-bd9a-c4521b23f6c8;"><path d="M226.24-11.92L226.24-11.92Q226.24-6.48 222.28-3.08L222.28-3.08L222.28-3.08Q218.32 0.32 212.40 0.32L212.40 0.32L212.40 0.32Q206.48 0.32 203.76-2.32L203.76-2.32L203.76-2.32Q201.04-4.96 201.04-7.92L201.04-7.92L201.04-7.92Q201.04-10.88 202.40-13.40L202.40-13.40L202.40-13.40Q203.76-15.92 205.60-17.48L205.60-17.48L205.60-17.48Q207.44-19.04 209.36-20.16L209.36-20.16L209.36-20.16Q213.04-22.24 214.00-22.24L214.00-22.24L214.40-20.80L214.40-20.80Q211.04-20 209.20-17.08L209.20-17.08L209.20-17.08Q207.36-14.16 207.36-10.20L207.36-10.20L207.36-10.20Q207.36-6.24 209.68-4.24L209.68-4.24L209.68-4.24Q212.00-2.24 214.64-2.24L214.64-2.24L214.64-2.24Q214.96-2.24 215.28-2.24L215.28-2.24L215.28-2.24Q219.84-2.24 222.24-5.16L222.24-5.16L222.24-5.16Q224.64-8.08 224.64-11.92L224.64-11.92L224.64-11.92Q224.64-13.68 223.52-15.44L223.52-15.44L223.52-15.44Q222.40-17.20 221.36-18.16L221.36-18.16L221.36-18.16Q220.32-19.12 217.92-20.92L217.92-20.92L217.92-20.92Q215.52-22.72 214.12-24L214.12-24L214.12-24Q212.72-25.28 211.44-27.48L211.44-27.48L211.44-27.48Q210.16-29.68 210.16-32.08L210.16-32.08L210.16-32.08Q210.16-36.72 214.20-40.40L214.20-40.40L214.20-40.40Q218.24-44.08 224.56-44.08L224.56-44.08L224.56-44.08Q234.96-44.08 234.96-36.16L234.96-36.16L234.96-36.16Q234.96-30.88 230.64-27.52L230.64-27.52L230.64-27.52Q226.32-24.16 220.80-22.88L220.80-22.88L220.48-24.24L220.48-24.24Q225.92-25.68 229.60-28.76L229.60-28.76L229.60-28.76Q233.28-31.84 233.28-35.48L233.28-35.48L233.28-35.48Q233.28-39.12 231.16-40.80L231.16-40.80L231.16-40.80Q229.04-42.48 224.08-42.48L224.08-42.48L224.08-42.48Q219.12-42.48 215.48-39.28L215.48-39.28L215.48-39.28Q211.84-36.08 211.84-32.08L211.84-32.08L211.84-32.08Q211.84-29.92 213.00-28L213.00-28L213.00-28Q214.16-26.08 215.40-24.96L215.40-24.96L215.40-24.96Q216.64-23.84 219.00-22.08L219.00-22.08L219.00-22.08Q221.36-20.32 222.60-19.20L222.60-19.20L222.60-19.20Q223.84-18.08 225.04-16.08L225.04-16.08L225.04-16.08Q226.24-14.08 226.24-11.92L226.24-11.92" fill="#290908" stroke="none" stroke-width="none" transform="translate(-114.08001708984375,18.539656546456474)" style="fill: rgb(216, 206, 167);"></path></g></g>
</g>
</g>
<style id="breath-32760947-2dbc-46db-bd9a-c4521b23f6c8" data-anikit="">@keyframes breath-32760947-2dbc-46db-bd9a-c4521b23f6c8
{
  0% {
    animation-timing-function: cubic-bezier(0.9647,0.2413,-0.0705,0.7911);
    transform: scale(0.9099999999999999);
  }
  51% {
    animation-timing-function: cubic-bezier(0.9226,0.2631,-0.0308,0.7628);
    transform: scale(1.02994);
  }
  100% {
    transform: scale(0.9099999999999999);
  }
}</style></svg>