<?xml version="1.0" encoding="utf-8"?>
<svg xmlns="http://www.w3.org/2000/svg" style="margin: auto; background: rgb(132, 138, 143); display: block; shape-rendering: auto;" width="280" height="250" preserveAspectRatio="xMidYMid">
<style type="text/css">
  text {
    text-anchor: middle; font-size: 86px; opacity: 0;
  }
</style>
<g style="transform-origin: 140px 125px; transform: scale(1.59259);">
<g transform="translate(140,125)">
  <g transform="translate(0,0)"><g class="path" style="transform: scale(0.91); transform-origin: -37.635px -4.37236px; animation: 0.568182s linear -0.3125s infinite normal forwards running breath-a34753d7-9f84-46b9-9330-fdca8c53805a;"><path d="M26.24-29.86L26.24-29.86L26.24-29.86Q21.98-31.70 16.98-31.70L16.98-31.70L16.98-31.70Q11.99-31.70 8.88-28.51L8.88-28.51L8.88-28.51Q5.78-25.33 5.78-20.20L5.78-20.20L4.59-20.20L4.59-20.20Q4.59-25.81 8.05-29.35L8.05-29.35L8.05-29.35Q11.50-32.89 16.90-32.89L16.90-32.89L16.90-32.89Q21.22-32.89 26.24-31.21L26.24-31.21L26.24-31.21Q32.02-29.11 38.77-29.11L38.77-29.11L38.77-27.97L38.77-27.97Q34.72-27.97 32.29-28.35L32.29-28.35L32.29-28.35Q31.64-25.65 30.40-20.87L30.40-20.87L30.40-20.87Q29.16-16.09 28.67-13.58L28.67-13.58L28.67-13.58Q28.19-11.07 28.19-8.42L28.19-8.42L28.19-8.42Q28.19-5.78 30.00-4.08L30.00-4.08L30.00-4.08Q31.81-2.38 34.67-2.38L34.67-2.38L34.67-2.38Q37.53-2.38 39.45-4.29L39.45-4.29L39.45-4.29Q41.36-6.21 42.28-8.48L42.28-8.48L48.65-35.91L49.79-35.91L42.23-3.46L42.23-3.46Q41.74-1.46 41.74-0.76L41.74-0.76L41.74-0.76Q41.74 1.51 43.85 1.51L43.85 1.51L43.85 1.51Q45.36 1.51 46.49-0.05L46.49-0.05L47.25 0.59L47.25 0.59Q46.87 1.30 45.90 1.92L45.90 1.92L45.90 1.92Q44.93 2.54 43.55 2.54L43.55 2.54L43.55 2.54Q42.17 2.54 41.39 1.62L41.39 1.62L41.39 1.62Q40.61 0.70 40.61-0.59L40.61-0.59L41.26-4.16L41.53-5.40L41.53-5.40Q40.07-3.13 37.61-1.32L37.61-1.32L37.61-1.32Q35.15 0.49 32.18 0.49L32.18 0.49L32.18 0.49Q27.22 0.49 24.57-2.13L24.57-2.13L24.57-2.13Q21.92-4.75 21.92-9.23L21.92-9.23L21.92-9.23Q21.92-12.80 22.68-15.88L22.68-15.88L22.68-15.88Q23.44-18.95 24.52-23.09L24.52-23.09L24.52-23.09Q25.60-27.22 26.24-29.86" fill="#3c0f0f" stroke="none" stroke-width="none" transform="translate(-64.82498168945312,12.312636464436846)" style="fill: rgb(60, 15, 15);"></path></g><g class="path" style="transform: scale(0.91); transform-origin: -1.23998px 2.05264px; animation: 0.568182s linear -0.25s infinite normal forwards running breath-a34753d7-9f84-46b9-9330-fdca8c53805a;"><path d="M72.20-0.59L72.20-0.59L72.20-0.59Q73.49-0.59 74.90-2.11L74.90-2.11L75.71-1.46L75.71-1.46Q75.33-0.70 74.03-0.11L74.03-0.11L74.03-0.11Q72.74 0.49 71.17 0.49L71.17 0.49L71.17 0.49Q66.26 0.49 66.26-3.94L66.26-3.94L66.26-3.94Q66.26-5.83 67.23-10.69L67.23-10.69L67.23-10.69Q68.20-15.55 68.20-17.06L68.20-17.06L68.20-17.06Q68.20-19.39 65.99-19.39L65.99-19.39L65.99-19.39Q64.21-19.39 62.56-17.06L62.56-17.06L62.56-17.06Q60.91-14.74 59.83-10.69L59.83-10.69L58.00-0.59L58.00-0.59Q59.67-0.76 60.75-2.11L60.75-2.11L61.56-1.46L61.56-1.46Q59.94 0.49 57.51 0.49L57.51 0.49L57.51 0.49Q55.08 0.49 53.70-0.76L53.70-0.76L53.70-0.76Q52.33-2.00 52.33-4.00L52.33-4.00L52.33-4.00Q52.33-4.75 53.19-9.94L53.19-9.94L54.97-19.93L54.97-19.93Q53.35-19.76 52.27-18.41L52.27-18.41L51.46-19.06L51.46-19.06Q53.08-21.01 55.54-21.01L55.54-21.01L55.54-21.01Q58.00-21.01 59.35-19.76L59.35-19.76L59.35-19.76Q60.70-18.52 60.70-16.25L60.70-16.25L60.70-15.93L60.70-15.93Q62.91-21.01 67.61-21.01L67.61-21.01L67.61-21.01Q70.79-21.01 72.58-19.20L72.58-19.20L72.58-19.20Q74.36-17.39 74.36-14.20L74.36-14.20L74.36-14.20Q74.36-12.53 73.33-7.75L73.33-7.75L73.33-7.75Q72.31-2.97 72.20-0.59" fill="#3c0f0f" stroke="none" stroke-width="none" transform="translate(-64.82498168945312,12.312636464436846)" style="fill: rgb(249, 26, 16);"></path></g><g class="path" style="transform: scale(0.91); transform-origin: 18.9px 2.05264px; animation: 0.568182s linear -0.1875s infinite normal forwards running breath-a34753d7-9f84-46b9-9330-fdca8c53805a;"><path d="M88.24-1.46L88.24-1.46Q86.62 0.49 84.19 0.49L84.19 0.49L84.19 0.49Q81.76 0.49 80.38-0.76L80.38-0.76L80.38-0.76Q79.00-2.00 79.00-4.00L79.00-4.00L79.00-4.00Q79.00-4.70 79.87-9.88L79.87-9.88L81.65-19.55L79.38-19.55L79.49-20.52L81.81-20.52L81.81-20.52Q85.81-20.52 87.70-20.84L87.70-20.84L88.45-21.01L84.73-0.59L84.73-0.59Q86.35-0.76 87.43-2.11L87.43-2.11L88.24-1.46" fill="#3c0f0f" stroke="none" stroke-width="none" transform="translate(-64.82498168945312,12.312636464436846)" style="fill: rgb(228, 107, 67);"></path></g><g class="path" style="transform: scale(0.91); transform-origin: 21.44px -16.6624px; animation: 0.568182s linear -0.125s infinite normal forwards running breath-a34753d7-9f84-46b9-9330-fdca8c53805a;"><path d="M83.48-26.19L83.48-26.19L83.48-26.19Q82.35-27.32 82.35-28.94L82.35-28.94L82.35-28.94Q82.35-30.56 83.48-31.72L83.48-31.72L83.48-31.72Q84.62-32.89 86.24-32.89L86.24-32.89L86.24-32.89Q87.86-32.89 89.02-31.72L89.02-31.72L89.02-31.72Q90.18-30.56 90.18-28.94L90.18-28.94L90.18-28.94Q90.18-27.32 89.02-26.19L89.02-26.19L89.02-26.19Q87.86-25.06 86.24-25.06L86.24-25.06L86.24-25.06Q84.62-25.06 83.48-26.19" fill="#3c0f0f" stroke="none" stroke-width="none" transform="translate(-64.82498168945312,12.312636464436846)" style="fill: rgb(237, 177, 149);"></path></g><g class="path" style="transform: scale(0.91); transform-origin: 34.965px -1.94236px; animation: 0.568182s linear -0.0625s infinite normal forwards running breath-a34753d7-9f84-46b9-9330-fdca8c53805a;"><path d="M91.91-20.52L94.66-20.52L96.12-28.51L96.12-28.51Q100.12-28.51 102.06-28.84L102.06-28.84L102.76-29.00L102.76-29.00Q102.01-25.22 101.09-20.52L101.09-20.52L107.78-20.52L107.68-19.55L100.93-19.55L100.93-19.55Q98.23-5.62 98.23-2.75L98.23-2.75L98.23-2.75Q98.23-1.03 100.06-1.03L100.06-1.03L100.06-1.03Q101.90-1.03 103.41-3.35L103.41-3.35L103.41-3.35Q104.92-5.67 105.57-8.37L105.57-8.37L106.54-8.05L106.54-8.05Q104.54 0.49 98.28 0.49L98.28 0.49L98.28 0.49Q95.69 0.49 93.96-0.94L93.96-0.94L93.96-0.94Q92.23-2.38 92.23-4.94L92.23-4.94L92.23-4.94Q92.23-7.51 94.45-19.55L94.45-19.55L91.80-19.55L91.91-20.52" fill="#3c0f0f" stroke="none" stroke-width="none" transform="translate(-64.82498168945312,12.312636464436846)" style="fill: rgb(42, 167, 201);"></path></g><g class="path" style="transform: scale(0.91); transform-origin: 62.26px 1.80764px; animation: 0.568182s linear 0s infinite normal forwards running breath-a34753d7-9f84-46b9-9330-fdca8c53805a;"><path d="M122.20-18.58L134.24-21.01L126.31 0L119.93 0L126.31-18.31L122.47-17.50L122.20-18.58" fill="#3c0f0f" stroke="none" stroke-width="none" transform="translate(-64.82498168945312,12.312636464436846)" style="fill: rgb(6, 98, 141);"></path></g></g>
</g>
</g>
<style id="breath-a34753d7-9f84-46b9-9330-fdca8c53805a" data-anikit="">@keyframes breath-a34753d7-9f84-46b9-9330-fdca8c53805a
{
  0% {
    animation-timing-function: cubic-bezier(0.9647,0.2413,-0.0705,0.7911);
    transform: scale(0.9099999999999999);
  }
  51% {
    animation-timing-function: cubic-bezier(0.9226,0.2631,-0.0308,0.7628);
    transform: scale(1.02994);
  }
  100% {
    transform: scale(0.9099999999999999);
  }
}</style></svg>