<?xml version="1.0" encoding="utf-8"?>
<svg xmlns="http://www.w3.org/2000/svg" style="margin: auto; background: rgb(218, 223, 227); display: block; shape-rendering: auto;" width="280" height="250" preserveAspectRatio="xMidYMid">
<style type="text/css">
  text {
    text-anchor: middle; font-size: 61px; opacity: 0;
  }
</style>
<g style="transform-origin:140px 125px;transform:scale(1)">
<g transform="translate(140,125)">
  <g transform="translate(0,0)"><g class="path" style="transform: scale(0.91); transform-origin: -48.62px 1.89392px; animation: 0.327869s linear -0.173115s infinite normal forwards running breath-d5b1d85f-23ca-4636-94c8-57e5d3ee0d86;"><path d="M63.62 2.50L63.62 2.50L63.62 2.50Q65.21 2.50 66.67 0.79L66.67 0.79L67.59 1.52L67.59 1.52Q67.41 1.77 67.10 2.13L67.10 2.13L67.10 2.13Q66.80 2.50 65.61 3.11L65.61 3.11L65.61 3.11Q64.42 3.72 63.01 3.72L63.01 3.72L63.01 3.72Q56.18 3.72 56.18-2.20L56.18-2.20L56.18-2.20Q56.18-4.03 56.61-7.63L56.61-7.63L56.61-7.63Q53.68-6.71 51.36-6.71L51.36-6.71L51.36-6.71Q47.27-6.71 43.19-9.21L43.19-9.21L43.19-9.21Q40.81-5.12 38.73-2.23L38.73-2.23L38.73-2.23Q36.66 0.67 33.92 3.42L33.92 3.42L33.92 3.42Q28.24 8.97 20.22 8.97L20.22 8.97L20.22 8.97Q12.20 8.97 7.44 3.84L7.44 3.84L7.44 3.84Q3.23-0.85 3.23-7.59L3.23-7.59L3.23-7.59Q3.23-14.33 7.56-19.58L7.56-19.58L7.56-19.58Q11.89-24.83 18.79-24.83L18.79-24.83L18.79-24.83Q25.68-24.83 29.28-20.74L29.28-20.74L29.28-20.74Q30.13-19.64 30.50-19.09L30.50-19.09L30.50-19.09Q33.79-17.69 38.00-14.46L38.00-14.46L38.00-14.46Q41.17-11.89 42.70-10.92L42.70-10.92L42.70-10.92Q43.55-12.50 45.05-15.19L45.05-15.19L45.05-15.19Q46.54-17.87 47.34-19.28L47.34-19.28L47.34-19.28Q48.13-20.68 49.71-23.24L49.71-23.24L49.71-23.24Q51.30-25.80 52.31-27.11L52.31-27.11L52.31-27.11Q53.31-28.43 54.99-30.41L54.99-30.41L54.99-30.41Q56.67-32.39 58.07-33.37L58.07-33.37L58.07-33.37Q62.28-36.36 65.15-36.84L65.15-36.84L65.15-36.84Q66.73-37.09 67.83-37.09L67.83-37.09L67.83-37.09Q68.93-37.09 70.27-37.06L70.27-37.06L70.27-37.06Q71.61-37.03 74.05-36.36L74.05-36.36L73.75-35.20L73.75-35.20Q72.28-35.62 70.64-35.81L70.64-35.81L70.64-35.81Q64.54-11.83 63.62 2.50zM32.45-12.02L32.45-12.02L32.45-12.02Q32.45-7.50 29.86-4.03L29.86-4.03L29.86-4.03Q27.27-0.55 22.88-0.55L22.88-0.55L22.88-0.55Q20.01-0.55 18.21-2.26L18.21-2.26L18.21-2.26Q16.41-3.96 16.41-5.79L16.41-5.79L16.41-5.79Q16.41-7.63 16.96-8.81L16.96-8.81L16.96-8.81Q17.51-10.00 18.21-10.61L18.21-10.61L18.21-10.61Q18.91-11.22 19.76-11.59L19.76-11.59L19.76-11.59Q20.92-12.20 21.59-12.20L21.59-12.20L21.72-10.98L21.72-10.98Q20.19-10.98 18.91-9.52L18.91-9.52L18.91-9.52Q17.63-8.05 17.63-6.22L17.63-6.22L17.63-6.22Q17.63-4.39 19.06-3.08L19.06-3.08L19.06-3.08Q20.50-1.77 22.88-1.77L22.88-1.77L22.88-1.77Q26.78-1.77 29.04-4.82L29.04-4.82L29.04-4.82Q31.29-7.87 31.29-11.59L31.29-11.59L31.29-11.59Q31.29-15.31 29.77-18.06L29.77-18.06L29.77-18.06Q26.41-19.34 23.12-19.34L23.12-19.34L23.12-19.34Q16.77-19.34 14.15-13.42L14.15-13.42L12.99-13.79L12.99-13.79Q13.66-15.31 15.13-17.08L15.13-17.08L15.13-17.08Q18.00-20.56 23.12-20.56L23.12-20.56L23.12-20.56Q25.86-20.56 28.55-19.76L28.55-19.76L28.43-19.95L28.43-19.95Q25.07-23.61 18.76-23.61L18.76-23.61L18.76-23.61Q12.44-23.61 8.45-18.73L8.45-18.73L8.45-18.73Q4.45-13.85 4.45-7.53L4.45-7.53L4.45-7.53Q4.45-1.22 8.36 2.99L8.36 2.99L8.36 2.99Q12.75 7.75 20.62 7.75L20.62 7.75L20.62 7.75Q27.82 7.75 33.18 2.32L33.18 2.32L33.18 2.32Q35.87-0.30 37.85-3.11L37.85-3.11L37.85-3.11Q39.83-5.92 42.15-9.88L42.15-9.88L42.15-9.88Q40.08-11.22 37.12-13.57L37.12-13.57L37.12-13.57Q34.16-15.92 31.41-17.32L31.41-17.32L31.41-17.32Q32.45-14.76 32.45-12.02zM46.12-14.46L43.80-10.25L43.80-10.25Q47.70-7.93 50.97-7.93L50.97-7.93L50.97-7.93Q54.23-7.93 56.79-8.97L56.79-8.97L56.79-8.97Q58.25-19.28 62.28-34.59L62.28-34.59L62.28-34.59Q57.40-32.27 53.31-26.35L53.31-26.35L53.31-26.35Q50.32-22.08 46.12-14.46L46.12-14.46" fill="#348ce3" stroke="none" stroke-width="none" transform="translate(-87.260009765625,15.953919860839846)" style="fill: rgb(52, 140, 227);"></path></g><g class="path" style="transform: scale(0.91); transform-origin: -1.40501px -2.98608px; animation: 0.327869s linear -0.129836s infinite normal forwards running breath-d5b1d85f-23ca-4636-94c8-57e5d3ee0d86;"><path d="M84.79 0.55L84.79 0.55L84.79 0.55Q80.95 0.55 79.18-2.01L79.18-2.01L74.05 1.65L72.89 1.65L79.73-38.31L79.73-38.31Q77.90-38.13 76.68-36.60L76.68-36.60L75.76-37.33L75.76-37.33Q77.59-39.53 80.37-39.53L80.37-39.53L80.37-39.53Q83.14-39.53 84.67-38.13L84.67-38.13L84.67-38.13Q86.19-36.72 86.19-34.16L86.19-34.16L86.19-34.16Q86.19-33.67 86.07-32.57L86.07-32.57L86.07-32.57Q85.09-27.14 83.69-19.52L83.69-19.52L83.69-19.52Q86.25-23.67 90.34-23.67L90.34-23.67L90.34-23.67Q94.43-23.67 96.62-21.32L96.62-21.32L96.62-21.32Q98.82-18.97 98.82-14.88L98.82-14.88L98.82-14.88Q98.82-7.69 94.92-3.57L94.92-3.57L94.92-3.57Q91.01 0.55 84.79 0.55zM84.36-1.10L84.36-1.10L84.36-1.10Q87.72-1.10 89.82-5.76L89.82-5.76L89.82-5.76Q91.93-10.43 91.93-17.38L91.93-17.38L91.93-17.38Q91.93-20.19 91.35-21.23L91.35-21.23L91.35-21.23Q90.77-22.27 89.24-22.27L89.24-22.27L89.24-22.27Q87.72-22.27 86.10-20.43L86.10-20.43L86.10-20.43Q84.48-18.61 83.75-16.99L83.75-16.99L83.75-16.99Q83.02-15.37 83.02-15.13L83.02-15.13L82.90-15.13L82.90-15.13Q81.37-7.14 80.64-3.05L80.64-3.05L80.64-3.05Q81.68-1.10 84.36-1.10" fill="#348ce3" stroke="none" stroke-width="none" transform="translate(-87.260009765625,15.953919860839846)" style="fill: rgb(70, 88, 106);"></path></g><g class="path" style="transform: scale(0.91); transform-origin: 26.505px 4.36392px; animation: 0.327869s linear -0.0865574s infinite normal forwards running breath-d5b1d85f-23ca-4636-94c8-57e5d3ee0d86;"><path d="M111.39 0.55L111.39 0.55Q106.69 0.55 104.25-1.80L104.25-1.80L104.25-1.80Q101.81-4.15 101.81-7.72L101.81-7.72L101.81-7.72Q101.81-11.29 102.45-13.82L102.45-13.82L102.45-13.82Q103.09-16.35 104.55-18.70L104.55-18.70L104.55-18.70Q106.02-21.04 108.98-22.39L108.98-22.39L108.98-22.39Q111.93-23.73 116.36-23.73L116.36-23.73L116.36-23.73Q120.78-23.73 123.25-21.38L123.25-21.38L123.25-21.38Q125.72-19.03 125.72-14.95L125.72-14.95L125.72-14.95Q125.72-7.99 122.03-3.72L122.03-3.72L122.03-3.72Q118.34 0.55 111.39 0.55L111.39 0.55zM108.70-5.73L108.70-5.73L108.70-5.73Q108.70-0.85 111.54-0.85L111.54-0.85L111.54-0.85Q114.38-0.85 116.60-5.76L116.60-5.76L116.60-5.76Q118.83-10.67 118.83-17.45L118.83-17.45L118.83-17.45Q118.83-22.57 116.05-22.57L116.05-22.57L116.05-22.57Q113.28-22.57 110.99-17.90L110.99-17.90L110.99-17.90Q108.70-13.24 108.70-5.73" fill="#348ce3" stroke="none" stroke-width="none" transform="translate(-87.260009765625,15.953919860839846)" style="fill: rgb(45, 8, 8);"></path></g><g class="path" style="transform: scale(0.91); transform-origin: 54.9px 4.36392px; animation: 0.327869s linear -0.0432787s infinite normal forwards running breath-d5b1d85f-23ca-4636-94c8-57e5d3ee0d86;"><path d="M132.49-22.51L132.49-22.51L132.49-22.51Q131.03-22.51 129.44-20.80L129.44-20.80L128.53-21.53L128.53-21.53Q128.95-22.39 130.42-23.06L130.42-23.06L130.42-23.06Q131.88-23.73 133.65-23.73L133.65-23.73L133.65-23.73Q139.20-23.73 139.20-18.73L139.20-18.73L139.20-18.73Q139.20-16.59 138.10-11.10L138.10-11.10L138.10-11.10Q137.01-5.61 137.01-3.90L137.01-3.90L137.01-3.90Q137.01-1.28 139.51-1.28L139.51-1.28L139.51-1.28Q141.28-1.28 142.95-3.35L142.95-3.35L142.95-3.35Q144.63-5.43 145.85-9.09L145.85-9.09L148.41-23.18L148.41-23.18Q152.93-23.18 155.00-23.55L155.00-23.55L155.79-23.73L151.71-0.67L151.71-0.67Q153.54-0.85 154.76-2.38L154.76-2.38L155.67-1.65L155.67-1.65Q153.84 0.55 151.10 0.55L151.10 0.55L151.10 0.55Q148.35 0.55 146.83-0.79L146.83-0.79L146.83-0.79Q145.30-2.13 145.24-4.58L145.24-4.58L145.24-4.58Q142.68 0.55 137.68 0.55L137.68 0.55L137.68 0.55Q134.08 0.55 132.06-1.49L132.06-1.49L132.06-1.49Q130.05-3.54 130.05-7.14L130.05-7.14L130.05-7.14Q130.05-9.03 131.21-14.43L131.21-14.43L131.21-14.43Q132.37-19.82 132.49-22.51" fill="#348ce3" stroke="none" stroke-width="none" transform="translate(-87.260009765625,15.953919860839846)" style="fill: rgb(52, 140, 227);"></path></g><g class="path" style="transform: scale(0.91); transform-origin: 81.465px -0.151079px; animation: 0.327869s linear 0s infinite normal forwards running breath-d5b1d85f-23ca-4636-94c8-57e5d3ee0d86;"><path d="M159.82-23.18L162.93-23.18L164.58-32.21L164.58-32.21Q169.09-32.21 171.29-32.57L171.29-32.57L172.08-32.76L172.08-32.76Q171.23-28.49 170.19-23.18L170.19-23.18L177.75-23.18L177.63-22.08L170.01-22.08L170.01-22.08Q166.96-6.34 166.96-3.11L166.96-3.11L166.96-3.11Q166.96-1.16 169.03-1.16L169.03-1.16L169.03-1.16Q171.10-1.16 172.81-3.78L172.81-3.78L172.81-3.78Q174.52-6.41 175.25-9.46L175.25-9.46L176.35-9.09L176.35-9.09Q174.09 0.55 167.02 0.55L167.02 0.55L167.02 0.55Q164.09 0.55 162.14-1.07L162.14-1.07L162.14-1.07Q160.19-2.68 160.19-5.58L160.19-5.58L160.19-5.58Q160.19-8.48 162.69-22.08L162.69-22.08L159.70-22.08L159.82-23.18" fill="#348ce3" stroke="none" stroke-width="none" transform="translate(-87.260009765625,15.953919860839846)" style="fill: rgb(70, 88, 106);"></path></g></g>
</g>
</g>
<style id="breath-d5b1d85f-23ca-4636-94c8-57e5d3ee0d86" data-anikit="">@keyframes breath-d5b1d85f-23ca-4636-94c8-57e5d3ee0d86
{
  0% {
    animation-timing-function: cubic-bezier(0.9647,0.2413,-0.0705,0.7911);
    transform: scale(0.9099999999999999);
  }
  51% {
    animation-timing-function: cubic-bezier(0.9226,0.2631,-0.0308,0.7628);
    transform: scale(1.02994);
  }
  100% {
    transform: scale(0.9099999999999999);
  }
}</style></svg>