<?xml version="1.0" encoding="utf-8"?>
<svg xmlns="http://www.w3.org/2000/svg" style="margin: auto; background: rgb(218, 223, 227); display: block; shape-rendering: auto;" width="280" height="250" preserveAspectRatio="xMidYMid">
<style type="text/css">
  text {
    text-anchor: middle; font-size: 61px; opacity: 0;
  }
</style>
<g style="transform-origin: 140px 125px; transform: scale(0.7625);">
<g transform="translate(140,125)">
  <g transform="translate(0,0)"><g class="path" style="transform: scale(0.91); transform-origin: -99.76px 2.8912px; animation: 0.75188s linear -0.425349s infinite normal forwards running breath-d5b1d85f-23ca-4636-94c8-57e5d3ee0d86;"><path d="M102.24 6.56L103.28 7.92L103.28 7.92Q100.24 10.96 95.40 10.96L95.40 10.96L95.40 10.96Q90.56 10.96 87.68 7.80L87.68 7.80L87.68 7.80Q84.80 4.64 84.80-0.52L84.80-0.52L84.80-0.52Q84.80-5.68 86.64-12.40L86.64-12.40L90.24-24.24L90.24-24.24Q83.52-15.76 77.92-8L77.92-8L77.92-8Q66.88 7.28 62.96 12.48L62.96 12.48L61.52 12.08L58.40-26.64L52-14.96L52-14.96Q42.88 2.24 36.76 7.72L36.76 7.72L36.76 7.72Q30.64 13.20 20.48 13.20L20.48 13.20L20.48 13.20Q11.84 13.20 6.16 7.04L6.16 7.04L6.16 7.04Q1.68 2 1.68-5.04L1.68-5.04L1.68-5.04Q1.68-6.32 1.84-7.68L1.84-7.68L3.44-7.52L3.44-7.52Q3.28-6.24 3.28-5.04L3.28-5.04L3.28-5.04Q3.28 1.44 7.36 5.92L7.36 5.92L7.36 5.92Q12.56 11.60 20.48 11.60L20.48 11.60L20.48 11.60Q30 11.60 35.84 6.28L35.84 6.28L35.84 6.28Q41.68 0.96 50.56-15.68L50.56-15.68L64.96-41.84L64.96-41.84Q56.48-42 48.52-44.52L48.52-44.52L48.52-44.52Q40.56-47.04 34.28-47.04L34.28-47.04L34.28-47.04Q28-47.04 23.76-42.64L23.76-42.64L23.76-42.64Q19.52-38.24 19.52-31.28L19.52-31.28L17.92-31.28L17.92-31.28Q17.92-38.96 22.60-43.80L22.60-43.80L22.60-43.80Q27.28-48.64 34.72-48.64L34.72-48.64L34.72-48.64Q40.72-48.64 49-46.04L49-46.04L49-46.04Q57.28-43.44 66.88-43.44L66.88-43.44L70.24-0.24L71.84-2.48L71.84-2.48Q88.72-25.68 97.92-35.64L97.92-35.64L97.92-35.64Q107.12-45.60 112.80-45.60L112.80-45.60L112.80-44L112.80-44Q110.32-44 106.48-41.28L106.48-41.28L106.48-41.28Q105.92-39.52 102.72-29.08L102.72-29.08L102.72-29.08Q99.52-18.64 97-10.84L97-10.84L97-10.84Q94.48-3.04 94.48 1.92L94.48 1.92L94.48 1.92Q94.48 6.88 96.24 9.28L96.24 9.28L96.24 9.28Q97.92 9.28 99.40 8.60L99.40 8.60L99.40 8.60Q100.88 7.92 101.60 7.20L101.60 7.20L102.24 6.56" fill="#348ce3" stroke="none" stroke-width="none" transform="translate(-157,20.61120022365025)" style="fill: rgb(52, 140, 227);"></path></g><g class="path" style="transform: scale(0.91); transform-origin: -31.16px 5.4112px; animation: 0.75188s linear -0.354458s infinite normal forwards running breath-d5b1d85f-23ca-4636-94c8-57e5d3ee0d86;"><path d="M122.72 0.72L122.72 0.72Q116.56 0.72 113.36-2.36L113.36-2.36L113.36-2.36Q110.16-5.44 110.16-10.12L110.16-10.12L110.16-10.12Q110.16-14.80 111-18.12L111-18.12L111-18.12Q111.84-21.44 113.76-24.52L113.76-24.52L113.76-24.52Q115.68-27.60 119.56-29.36L119.56-29.36L119.56-29.36Q123.44-31.12 129.24-31.12L129.24-31.12L129.24-31.12Q135.04-31.12 138.28-28.04L138.28-28.04L138.28-28.04Q141.52-24.96 141.52-19.60L141.52-19.60L141.52-19.60Q141.52-10.48 136.68-4.88L136.68-4.88L136.68-4.88Q131.84 0.72 122.72 0.72L122.72 0.72zM119.20-7.52L119.20-7.52L119.20-7.52Q119.20-1.12 122.92-1.12L122.92-1.12L122.92-1.12Q126.64-1.12 129.56-7.56L129.56-7.56L129.56-7.56Q132.48-14 132.48-22.88L132.48-22.88L132.48-22.88Q132.48-29.60 128.84-29.60L128.84-29.60L128.84-29.60Q125.20-29.60 122.20-23.48L122.20-23.48L122.20-23.48Q119.20-17.36 119.20-7.52" fill="#348ce3" stroke="none" stroke-width="none" transform="translate(-157,20.61120022365025)" style="fill: rgb(70, 88, 106);"></path></g><g class="path" style="transform: scale(0.91); transform-origin: 6.56px -4.9488px; animation: 0.75188s linear -0.283566s infinite normal forwards running breath-d5b1d85f-23ca-4636-94c8-57e5d3ee0d86;"><path d="M173.20 0.72L173.20 0.72L173.20 0.72Q166.16 0.72 165.52-5.28L165.52-5.28L165.52-5.28Q162 0.72 156.56 0.72L156.56 0.72L156.56 0.72Q151.12 0.72 148.24-2.36L148.24-2.36L148.24-2.36Q145.36-5.44 145.36-10.80L145.36-10.80L145.36-10.80Q145.36-20.24 149.84-25.68L149.84-25.68L149.84-25.68Q154.32-31.12 161.44-31.12L161.44-31.12L161.44-31.12Q165.52-31.12 167.76-28.64L167.76-28.64L167.76-28.64Q168.72-27.36 168.96-26.72L168.96-26.72L173.28-50.24L173.28-50.24Q170.88-50 169.28-48L169.28-48L168.08-48.96L168.08-48.96Q170.48-51.84 174.12-51.84L174.12-51.84L174.12-51.84Q177.76-51.84 179.76-50L179.76-50L179.76-50Q181.76-48.16 181.76-44.80L181.76-44.80L181.76-44.80Q181.76-44.16 181.60-42.72L181.60-42.72L181.60-42.72Q177.68-20.72 174-0.88L174-0.88L174-0.88Q176.40-1.12 178-3.12L178-3.12L179.20-2.16L179.20-2.16Q176.80 0.72 173.20 0.72zM154.40-7.52L154.40-7.52Q154.40-3.84 155.16-2.48L155.16-2.48L155.16-2.48Q155.92-1.12 157.56-1.12L157.56-1.12L157.56-1.12Q159.20-1.12 160.72-2.24L160.72-2.24L160.72-2.24Q162.24-3.36 163.28-5.12L163.28-5.12L163.28-5.12Q165.20-8.08 166-10.16L166-10.16L168.32-22.80L168.32-22.80Q168.16-25.36 166.64-27.48L166.64-27.48L166.64-27.48Q165.12-29.60 161.44-29.60L161.44-29.60L161.44-29.60Q158.88-29.60 156.64-22.08L156.64-22.08L156.64-22.08Q154.40-14.56 154.40-7.52L154.40-7.52" fill="#348ce3" stroke="none" stroke-width="none" transform="translate(-157,20.61120022365025)" style="fill: rgb(45, 8, 8);"></path></g><g class="path" style="transform: scale(0.91); transform-origin: 44.56px 5.4112px; animation: 0.75188s linear -0.212675s infinite normal forwards running breath-d5b1d85f-23ca-4636-94c8-57e5d3ee0d86;"><path d="M188.88-29.52L188.88-29.52L188.88-29.52Q186.96-29.52 184.88-27.28L184.88-27.28L183.68-28.24L183.68-28.24Q184.24-29.36 186.16-30.24L186.16-30.24L186.16-30.24Q188.08-31.12 190.40-31.12L190.40-31.12L190.40-31.12Q197.68-31.12 197.68-24.56L197.68-24.56L197.68-24.56Q197.68-21.76 196.24-14.56L196.24-14.56L196.24-14.56Q194.80-7.36 194.80-5.12L194.80-5.12L194.80-5.12Q194.80-1.68 198.08-1.68L198.08-1.68L198.08-1.68Q200.40-1.68 202.60-4.40L202.60-4.40L202.60-4.40Q204.80-7.12 206.40-11.92L206.40-11.92L209.76-30.40L209.76-30.40Q215.68-30.40 218.40-30.88L218.40-30.88L219.44-31.12L214.08-0.88L214.08-0.88Q216.48-1.12 218.08-3.12L218.08-3.12L219.28-2.16L219.28-2.16Q216.88 0.72 213.28 0.72L213.28 0.72L213.28 0.72Q209.68 0.72 207.68-1.04L207.68-1.04L207.68-1.04Q205.68-2.80 205.60-6L205.60-6L205.60-6Q202.24 0.72 195.68 0.72L195.68 0.72L195.68 0.72Q190.96 0.72 188.32-1.96L188.32-1.96L188.32-1.96Q185.68-4.64 185.68-9.36L185.68-9.36L185.68-9.36Q185.68-11.84 187.20-18.92L187.20-18.92L187.20-18.92Q188.72-26 188.88-29.52" fill="#348ce3" stroke="none" stroke-width="none" transform="translate(-157,20.61120022365025)" style="fill: rgb(52, 140, 227);"></path></g><g class="path" style="transform: scale(0.91); transform-origin: 78.4px -4.9488px; animation: 0.75188s linear -0.141783s infinite normal forwards running breath-d5b1d85f-23ca-4636-94c8-57e5d3ee0d86;"><path d="M238.48-2.88L238.48-2.88L238.48-2.88Q237.44-1.52 235.64-0.40L235.64-0.40L235.64-0.40Q233.84 0.72 230.96 0.72L230.96 0.72L230.96 0.72Q228.08 0.72 226.08-1.12L226.08-1.12L226.08-1.12Q224.08-2.96 224.08-6.32L224.08-6.32L224.08-6.32Q224.08-6.96 224.24-8.40L224.24-8.40L229.44-37.20L229.44-37.20Q230.88-45.12 233.40-48.48L233.40-48.48L233.40-48.48Q235.92-51.84 240.08-51.84L240.08-51.84L240.08-51.84Q242.96-51.84 244.84-49.68L244.84-49.68L244.84-49.68Q246.72-47.52 246.72-43.12L246.72-43.12L246.72-43.12Q246.72-38.72 243.32-30.56L243.32-30.56L243.32-30.56Q239.92-22.40 239.92-18.64L239.92-18.64L238.48-18.64L238.48-18.64Q238.48-22.88 241.84-30.76L241.84-30.76L241.84-30.76Q245.20-38.64 245.20-43.36L245.20-43.36L245.20-43.36Q245.20-46.24 243.88-48.32L243.88-48.32L243.88-48.32Q242.56-50.40 240.64-50.40L240.64-50.40L240.64-50.40Q240.56-48.32 237.88-31.72L237.88-31.72L237.88-31.72Q235.20-15.12 232.56-0.88L232.56-0.88L232.56-0.88Q234.80-0.88 236.72-3.20L236.72-3.20L236.72-3.20Q238.64-5.52 239.44-7.84L239.44-7.84L240.32-10.24L241.76-9.60L241.76-9.60Q241.52-8.48 240.52-6.36L240.52-6.36L240.52-6.36Q239.52-4.24 238.48-2.88" fill="#348ce3" stroke="none" stroke-width="none" transform="translate(-157,20.61120022365025)" style="fill: rgb(70, 88, 106);"></path></g><g class="path" style="transform: scale(0.91); transform-origin: 102.84px 5.4112px; animation: 0.75188s linear -0.0708915s infinite normal forwards running breath-d5b1d85f-23ca-4636-94c8-57e5d3ee0d86;"><path d="M263.36-31.12L263.36-31.12L263.36-31.12Q273.52-31.12 273.52-23.04L273.52-23.04L273.52-23.04Q273.52-18 268.76-15.40L268.76-15.40L268.76-15.40Q264-12.80 255.20-12.72L255.20-12.72L255.20-12.72Q255.04-9.84 255.04-8.16L255.04-8.16L255.04-8.16Q255.04-4.56 256.68-2.84L256.68-2.84L256.68-2.84Q258.32-1.12 260.80-1.12L260.80-1.12L260.80-1.12Q263.28-1.12 265.32-2.08L265.32-2.08L265.32-2.08Q267.36-3.04 268.56-4.36L268.56-4.36L268.56-4.36Q269.76-5.68 270.64-7.12L270.64-7.12L270.64-7.12Q272.24-9.76 272.24-10.48L272.24-10.48L273.68-9.84L273.68-9.84Q273.44-8.56 272.24-6.44L272.24-6.44L272.24-6.44Q271.04-4.32 269.60-2.96L269.60-2.96L269.60-2.96Q268.16-1.60 265.36-0.44L265.36-0.44L265.36-0.44Q262.56 0.72 259.12 0.72L259.12 0.72L259.12 0.72Q252.64 0.72 249.32-2.36L249.32-2.36L249.32-2.36Q246-5.44 246-10.80L246-10.80L246-10.80Q246-20.32 250.72-25.72L250.72-25.72L250.72-25.72Q255.44-31.12 263.36-31.12zM271.52-23.04L271.52-23.04Q271.52-25.68 269.96-27.40L269.96-27.40L269.96-27.40Q268.40-29.12 265.32-29.12L265.32-29.12L265.32-29.12Q262.24-29.12 259.32-25.44L259.32-25.44L259.32-25.44Q256.40-21.76 255.44-14.56L255.44-14.56L255.44-14.56Q271.52-14.64 271.52-23.04L271.52-23.04" fill="#348ce3" stroke="none" stroke-width="none" transform="translate(-157,20.61120022365025)" style="fill: rgb(45, 8, 8);"></path></g><g class="path" style="transform: scale(0.91); transform-origin: 148.08px 5.0512px; animation: 0.75188s linear 0s infinite normal forwards running breath-d5b1d85f-23ca-4636-94c8-57e5d3ee0d86;"><path d="M297.84-27.52L315.68-31.12L303.92 0L294.48 0L303.92-27.12L298.24-25.92L297.84-27.52" fill="#348ce3" stroke="none" stroke-width="none" transform="translate(-157,20.61120022365025)" style="fill: rgb(52, 140, 227);"></path></g></g>
</g>
</g>
<style id="breath-d5b1d85f-23ca-4636-94c8-57e5d3ee0d86" data-anikit="">@keyframes breath-d5b1d85f-23ca-4636-94c8-57e5d3ee0d86
{
  0% {
    animation-timing-function: cubic-bezier(0.9647,0.2413,-0.0705,0.7911);
    transform: scale(0.9099999999999999);
  }
  51% {
    animation-timing-function: cubic-bezier(0.9226,0.2631,-0.0308,0.7628);
    transform: scale(1.02994);
  }
  100% {
    transform: scale(0.9099999999999999);
  }
}</style></svg>