<?xml version="1.0" encoding="utf-8"?>
<svg xmlns="http://www.w3.org/2000/svg" style="margin: auto; background: rgb(218, 223, 227); display: block; shape-rendering: auto;" width="280" height="250" preserveAspectRatio="xMidYMid">
<style type="text/css">
  text {
    text-anchor: middle; font-size: 61px; opacity: 0;
  }
</style>
<g style="transform-origin:140px 125px;transform:scale(1)">
<g transform="translate(140,125)">
  <g transform="translate(0,0)"><g class="path" style="transform: scale(0.91); transform-origin: -78.385px 2.21483px; animation: 0.75188s linear -0.425349s infinite normal forwards running breath-d5b1d85f-23ca-4636-94c8-57e5d3ee0d86;"><path d="M77.96 5.00L78.75 6.04L78.75 6.04Q76.43 8.36 72.74 8.36L72.74 8.36L72.74 8.36Q69.05 8.36 66.86 5.95L66.86 5.95L66.86 5.95Q64.66 3.54 64.66-0.40L64.66-0.40L64.66-0.40Q64.66-4.33 66.06-9.46L66.06-9.46L68.81-18.48L68.81-18.48Q63.68-12.02 59.41-6.10L59.41-6.10L59.41-6.10Q51.00 5.55 48.01 9.52L48.01 9.52L46.91 9.21L44.53-20.31L39.65-11.41L39.65-11.41Q32.70 1.71 28.03 5.89L28.03 5.89L28.03 5.89Q23.36 10.06 15.62 10.06L15.62 10.06L15.62 10.06Q9.03 10.06 4.70 5.37L4.70 5.37L4.70 5.37Q1.28 1.52 1.28-3.84L1.28-3.84L1.28-3.84Q1.28-4.82 1.40-5.86L1.40-5.86L2.62-5.73L2.62-5.73Q2.50-4.76 2.50-3.84L2.50-3.84L2.50-3.84Q2.50 1.10 5.61 4.51L5.61 4.51L5.61 4.51Q9.58 8.85 15.62 8.85L15.62 8.85L15.62 8.85Q22.88 8.85 27.33 4.79L27.33 4.79L27.33 4.79Q31.78 0.73 38.55-11.96L38.55-11.96L49.53-31.90L49.53-31.90Q43.07-32.02 37.00-33.95L37.00-33.95L37.00-33.95Q30.93-35.87 26.14-35.87L26.14-35.87L26.14-35.87Q21.35-35.87 18.12-32.51L18.12-32.51L18.12-32.51Q14.88-29.16 14.88-23.85L14.88-23.85L13.66-23.85L13.66-23.85Q13.66-29.71 17.23-33.40L17.23-33.40L17.23-33.40Q20.80-37.09 26.47-37.09L26.47-37.09L26.47-37.09Q31.05-37.09 37.36-35.11L37.36-35.11L37.36-35.11Q43.68-33.12 51.00-33.12L51.00-33.12L53.56-0.18L54.78-1.89L54.78-1.89Q67.65-19.58 74.66-27.18L74.66-27.18L74.66-27.18Q81.68-34.77 86.01-34.77L86.01-34.77L86.01-33.55L86.01-33.55Q84.12-33.55 81.19-31.48L81.19-31.48L81.19-31.48Q80.76-30.13 78.32-22.17L78.32-22.17L78.32-22.17Q75.88-14.21 73.96-8.27L73.96-8.27L73.96-8.27Q72.04-2.32 72.04 1.46L72.04 1.46L72.04 1.46Q72.04 5.25 73.38 7.08L73.38 7.08L73.38 7.08Q74.66 7.08 75.79 6.56L75.79 6.56L75.79 6.56Q76.92 6.04 77.47 5.49L77.47 5.49L77.96 5.00" fill="#348ce3" stroke="none" stroke-width="none" transform="translate(-122.02996826171875,15.7298291015625)" style="fill: rgb(52, 140, 227);"></path></g><g class="path" style="transform: scale(0.91); transform-origin: -26.075px 4.13983px; animation: 0.75188s linear -0.354458s infinite normal forwards running breath-d5b1d85f-23ca-4636-94c8-57e5d3ee0d86;"><path d="M93.57 0.55L93.57 0.55Q88.88 0.55 86.44-1.80L86.44-1.80L86.44-1.80Q84.00-4.15 84.00-7.72L84.00-7.72L84.00-7.72Q84.00-11.29 84.64-13.82L84.64-13.82L84.64-13.82Q85.28-16.35 86.74-18.70L86.74-18.70L86.74-18.70Q88.21-21.04 91.16-22.39L91.16-22.39L91.16-22.39Q94.12-23.73 98.55-23.73L98.55-23.73L98.55-23.73Q102.97-23.73 105.44-21.38L105.44-21.38L105.44-21.38Q107.91-19.03 107.91-14.95L107.91-14.95L107.91-14.95Q107.91-7.99 104.22-3.72L104.22-3.72L104.22-3.72Q100.53 0.55 93.57 0.55L93.57 0.55zM90.89-5.73L90.89-5.73L90.89-5.73Q90.89-0.85 93.73-0.85L93.73-0.85L93.73-0.85Q96.56-0.85 98.79-5.76L98.79-5.76L98.79-5.76Q101.02-10.67 101.02-17.45L101.02-17.45L101.02-17.45Q101.02-22.57 98.24-22.57L98.24-22.57L98.24-22.57Q95.47-22.57 93.18-17.90L93.18-17.90L93.18-17.90Q90.89-13.24 90.89-5.73" fill="#348ce3" stroke="none" stroke-width="none" transform="translate(-122.02996826171875,15.7298291015625)" style="fill: rgb(70, 88, 106);"></path></g><g class="path" style="transform: scale(0.91); transform-origin: 2.68503px -3.76017px; animation: 0.75188s linear -0.283566s infinite normal forwards running breath-d5b1d85f-23ca-4636-94c8-57e5d3ee0d86;"><path d="M132.06 0.55L132.06 0.55L132.06 0.55Q126.70 0.55 126.21-4.03L126.21-4.03L126.21-4.03Q123.52 0.55 119.38 0.55L119.38 0.55L119.38 0.55Q115.23 0.55 113.03-1.80L113.03-1.80L113.03-1.80Q110.84-4.15 110.84-8.23L110.84-8.23L110.84-8.23Q110.84-15.43 114.25-19.58L114.25-19.58L114.25-19.58Q117.67-23.73 123.10-23.73L123.10-23.73L123.10-23.73Q126.21-23.73 127.92-21.84L127.92-21.84L127.92-21.84Q128.65-20.86 128.83-20.37L128.83-20.37L132.13-38.31L132.13-38.31Q130.30-38.13 129.08-36.60L129.08-36.60L128.16-37.33L128.16-37.33Q129.99-39.53 132.77-39.53L132.77-39.53L132.77-39.53Q135.54-39.53 137.07-38.13L137.07-38.13L137.07-38.13Q138.59-36.72 138.59-34.16L138.59-34.16L138.59-34.16Q138.59-33.67 138.47-32.57L138.47-32.57L138.47-32.57Q135.48-15.80 132.67-0.67L132.67-0.67L132.67-0.67Q134.50-0.85 135.72-2.38L135.72-2.38L136.64-1.65L136.64-1.65Q134.81 0.55 132.06 0.55zM117.73-5.73L117.73-5.73Q117.73-2.93 118.31-1.89L118.31-1.89L118.31-1.89Q118.89-0.85 120.14-0.85L120.14-0.85L120.14-0.85Q121.39-0.85 122.55-1.71L122.55-1.71L122.55-1.71Q123.71-2.56 124.50-3.90L124.50-3.90L124.50-3.90Q125.96-6.16 126.57-7.75L126.57-7.75L128.34-17.38L128.34-17.38Q128.22-19.34 127.06-20.95L127.06-20.95L127.06-20.95Q125.90-22.57 123.10-22.57L123.10-22.57L123.10-22.57Q121.15-22.57 119.44-16.84L119.44-16.84L119.44-16.84Q117.73-11.10 117.73-5.73L117.73-5.73" fill="#348ce3" stroke="none" stroke-width="none" transform="translate(-122.02996826171875,15.7298291015625)" style="fill: rgb(45, 8, 8);"></path></g><g class="path" style="transform: scale(0.91); transform-origin: 31.66px 4.13983px; animation: 0.75188s linear -0.212675s infinite normal forwards running breath-d5b1d85f-23ca-4636-94c8-57e5d3ee0d86;"><path d="M144.02-22.51L144.02-22.51L144.02-22.51Q142.56-22.51 140.97-20.80L140.97-20.80L140.06-21.53L140.06-21.53Q140.48-22.39 141.95-23.06L141.95-23.06L141.95-23.06Q143.41-23.73 145.18-23.73L145.18-23.73L145.18-23.73Q150.73-23.73 150.73-18.73L150.73-18.73L150.73-18.73Q150.73-16.59 149.63-11.10L149.63-11.10L149.63-11.10Q148.53-5.61 148.53-3.90L148.53-3.90L148.53-3.90Q148.53-1.28 151.04-1.28L151.04-1.28L151.04-1.28Q152.80-1.28 154.48-3.35L154.48-3.35L154.48-3.35Q156.16-5.43 157.38-9.09L157.38-9.09L159.94-23.18L159.94-23.18Q164.46-23.18 166.53-23.55L166.53-23.55L167.32-23.73L163.24-0.67L163.24-0.67Q165.07-0.85 166.29-2.38L166.29-2.38L167.20-1.65L167.20-1.65Q165.37 0.55 162.63 0.55L162.63 0.55L162.63 0.55Q159.88 0.55 158.36-0.79L158.36-0.79L158.36-0.79Q156.83-2.13 156.77-4.58L156.77-4.58L156.77-4.58Q154.21 0.55 149.21 0.55L149.21 0.55L149.21 0.55Q145.61 0.55 143.59-1.49L143.59-1.49L143.59-1.49Q141.58-3.54 141.58-7.14L141.58-7.14L141.58-7.14Q141.58-9.03 142.74-14.43L142.74-14.43L142.74-14.43Q143.90-19.82 144.02-22.51" fill="#348ce3" stroke="none" stroke-width="none" transform="translate(-122.02996826171875,15.7298291015625)" style="fill: rgb(52, 140, 227);"></path></g><g class="path" style="transform: scale(0.91); transform-origin: 57.46px -3.76017px; animation: 0.75188s linear -0.141783s infinite normal forwards running breath-d5b1d85f-23ca-4636-94c8-57e5d3ee0d86;"><path d="M181.84-2.20L181.84-2.20L181.84-2.20Q181.05-1.16 179.68-0.30L179.68-0.30L179.68-0.30Q178.30 0.55 176.11 0.55L176.11 0.55L176.11 0.55Q173.91 0.55 172.39-0.85L172.39-0.85L172.39-0.85Q170.86-2.26 170.86-4.82L170.86-4.82L170.86-4.82Q170.86-5.31 170.98-6.41L170.98-6.41L174.95-28.36L174.95-28.36Q176.05-34.40 177.97-36.97L177.97-36.97L177.97-36.97Q179.89-39.53 183.06-39.53L183.06-39.53L183.06-39.53Q185.26-39.53 186.69-37.88L186.69-37.88L186.69-37.88Q188.12-36.23 188.12-32.88L188.12-32.88L188.12-32.88Q188.12-29.52 185.53-23.30L185.53-23.30L185.53-23.30Q182.94-17.08 182.94-14.21L182.94-14.21L181.84-14.21L181.84-14.21Q181.84-17.45 184.40-23.45L184.40-23.45L184.40-23.45Q186.96-29.46 186.96-33.06L186.96-33.06L186.96-33.06Q186.96-35.26 185.96-36.84L185.96-36.84L185.96-36.84Q184.95-38.43 183.49-38.43L183.49-38.43L183.49-38.43Q183.43-36.84 181.38-24.19L181.38-24.19L181.38-24.19Q179.34-11.53 177.33-0.67L177.33-0.67L177.33-0.67Q179.03-0.67 180.50-2.44L180.50-2.44L180.50-2.44Q181.96-4.21 182.57-5.98L182.57-5.98L183.24-7.81L184.34-7.32L184.34-7.32Q184.16-6.47 183.40-4.85L183.40-4.85L183.40-4.85Q182.63-3.23 181.84-2.20" fill="#348ce3" stroke="none" stroke-width="none" transform="translate(-122.02996826171875,15.7298291015625)" style="fill: rgb(70, 88, 106);"></path></g><g class="path" style="transform: scale(0.91); transform-origin: 76.095px 4.13983px; animation: 0.75188s linear -0.0708915s infinite normal forwards running breath-d5b1d85f-23ca-4636-94c8-57e5d3ee0d86;"><path d="M200.81-23.73L200.81-23.73L200.81-23.73Q208.56-23.73 208.56-17.57L208.56-17.57L208.56-17.57Q208.56-13.72 204.93-11.74L204.93-11.74L204.93-11.74Q201.30-9.76 194.59-9.70L194.59-9.70L194.59-9.70Q194.47-7.50 194.47-6.22L194.47-6.22L194.47-6.22Q194.47-3.48 195.72-2.17L195.72-2.17L195.72-2.17Q196.97-0.85 198.86-0.85L198.86-0.85L198.86-0.85Q200.75-0.85 202.31-1.59L202.31-1.59L202.31-1.59Q203.86-2.32 204.78-3.32L204.78-3.32L204.78-3.32Q205.69-4.33 206.36-5.43L206.36-5.43L206.36-5.43Q207.58-7.44 207.58-7.99L207.58-7.99L208.68-7.50L208.68-7.50Q208.50-6.53 207.58-4.91L207.58-4.91L207.58-4.91Q206.67-3.29 205.57-2.26L205.57-2.26L205.57-2.26Q204.47-1.22 202.34-0.34L202.34-0.34L202.34-0.34Q200.20 0.55 197.58 0.55L197.58 0.55L197.58 0.55Q192.64 0.55 190.11-1.80L190.11-1.80L190.11-1.80Q187.57-4.15 187.57-8.23L187.57-8.23L187.57-8.23Q187.57-15.49 191.17-19.61L191.17-19.61L191.17-19.61Q194.77-23.73 200.81-23.73zM207.03-17.57L207.03-17.57Q207.03-19.58 205.84-20.89L205.84-20.89L205.84-20.89Q204.65-22.20 202.31-22.20L202.31-22.20L202.31-22.20Q199.96-22.20 197.73-19.40L197.73-19.40L197.73-19.40Q195.50-16.59 194.77-11.10L194.77-11.10L194.77-11.10Q207.03-11.16 207.03-17.57L207.03-17.57" fill="#348ce3" stroke="none" stroke-width="none" transform="translate(-122.02996826171875,15.7298291015625)" style="fill: rgb(45, 8, 8);"></path></g><g class="path" style="transform: scale(0.91); transform-origin: 112.15px 3.98483px; animation: 0.75188s linear 0s infinite normal forwards running breath-d5b1d85f-23ca-4636-94c8-57e5d3ee0d86;"><path d="M242.47 0.24L223.02 0.24L223.02-0.98L223.02-0.98Q225.33-2.56 232.47-6.83L232.47-6.83L232.47-6.83Q236.86-9.64 238.08-11.53L238.08-11.53L238.08-11.53Q239.30-13.42 239.30-16.01L239.30-16.01L239.30-16.01Q239.30-18.61 238.05-20.04L238.05-20.04L238.05-20.04Q236.80-21.47 234.97-21.47L234.97-21.47L234.97-21.47Q233.14-21.47 231.43-20.13L231.43-20.13L231.43-20.13Q229.73-18.79 228.90-17.66L228.90-17.66L228.90-17.66Q228.08-16.53 227.96-16.23L227.96-16.23L226.98-16.84L226.98-16.84Q227.77-18.30 229.54-20.07L229.54-20.07L229.54-20.07Q233.08-23.73 238.75-23.73L238.75-23.73L238.75-23.73Q245.34-23.73 245.34-18.06L245.34-18.06L245.34-18.06Q245.34-14.82 242.54-12.26L242.54-12.26L242.54-12.26Q239.73-9.70 232.78-5.49L232.78-5.49L244.55-5.49L242.47 0.24" fill="#348ce3" stroke="none" stroke-width="none" transform="translate(-122.02996826171875,15.7298291015625)" style="fill: rgb(52, 140, 227);"></path></g></g>
</g>
</g>
<style id="breath-d5b1d85f-23ca-4636-94c8-57e5d3ee0d86" data-anikit="">@keyframes breath-d5b1d85f-23ca-4636-94c8-57e5d3ee0d86
{
  0% {
    animation-timing-function: cubic-bezier(0.9647,0.2413,-0.0705,0.7911);
    transform: scale(0.9099999999999999);
  }
  51% {
    animation-timing-function: cubic-bezier(0.9226,0.2631,-0.0308,0.7628);
    transform: scale(1.02994);
  }
  100% {
    transform: scale(0.9099999999999999);
  }
}</style></svg>