<?xml version="1.0" encoding="utf-8"?>
<svg xmlns="http://www.w3.org/2000/svg" style="margin: auto; background: rgb(241, 242, 243); display: block; shape-rendering: auto;" width="280" height="250" preserveAspectRatio="xMidYMid">
<style type="text/css">
  text {
    text-anchor: middle; font-size: 61px; opacity: 0;
  }
</style>
<g style="transform-origin:140px 125px;transform:scale(1)">
<g transform="translate(140,125)">
  <g transform="translate(0,0)"><g class="path" style="transform: scale(0.91); transform-origin: -42.525px -4.93827px; animation: 0.327869s linear -0.180328s infinite normal forwards running breath-d5b1d85f-23ca-4636-94c8-57e5d3ee0d86;"><path d="M29.65-33.73L29.65-33.73L29.65-33.73Q24.83-35.81 19.18-35.81L19.18-35.81L19.18-35.81Q13.54-35.81 10.03-32.21L10.03-32.21L10.03-32.21Q6.53-28.61 6.53-22.81L6.53-22.81L5.18-22.81L5.18-22.81Q5.18-29.16 9.09-33.15L9.09-33.15L9.09-33.15Q12.99-37.15 19.09-37.15L19.09-37.15L19.09-37.15Q23.97-37.15 29.65-35.26L29.65-35.26L29.65-35.26Q36.17-32.88 43.80-32.88L43.80-32.88L43.80-31.60L43.80-31.60Q39.22-31.60 36.48-32.02L36.48-32.02L36.48-32.02Q35.75-28.97 34.34-23.58L34.34-23.58L34.34-23.58Q32.94-18.18 32.39-15.34L32.39-15.34L32.39-15.34Q31.84-12.50 31.84-9.52L31.84-9.52L31.84-9.52Q31.84-6.53 33.89-4.61L33.89-4.61L33.89-4.61Q35.93-2.68 39.16-2.68L39.16-2.68L39.16-2.68Q42.39-2.68 44.56-4.85L44.56-4.85L44.56-4.85Q46.73-7.01 47.76-9.58L47.76-9.58L54.96-40.56L56.24-40.56L47.70-3.90L47.70-3.90Q47.15-1.65 47.15-0.85L47.15-0.85L47.15-0.85Q47.15 1.71 49.53 1.71L49.53 1.71L49.53 1.71Q51.24 1.71 52.52-0.06L52.52-0.06L53.38 0.67L53.38 0.67Q52.95 1.46 51.85 2.17L51.85 2.17L51.85 2.17Q50.75 2.87 49.20 2.87L49.20 2.87L49.20 2.87Q47.64 2.87 46.76 1.83L46.76 1.83L46.76 1.83Q45.87 0.79 45.87-0.67L45.87-0.67L46.60-4.70L46.91-6.10L46.91-6.10Q45.26-3.54 42.49-1.49L42.49-1.49L42.49-1.49Q39.71 0.55 36.36 0.55L36.36 0.55L36.36 0.55Q30.74 0.55 27.75-2.41L27.75-2.41L27.75-2.41Q24.77-5.37 24.77-10.43L24.77-10.43L24.77-10.43Q24.77-14.46 25.62-17.93L25.62-17.93L25.62-17.93Q26.47-21.41 27.69-26.08L27.69-26.08L27.69-26.08Q28.91-30.74 29.65-33.73" fill="#df1317" stroke="none" stroke-width="none" transform="translate(-73.23501586914062,13.906732482910156)" style="fill: rgb(223, 19, 23);"></path></g><g class="path" style="transform: scale(0.91); transform-origin: -1.41002px 2.31673px; animation: 0.327869s linear -0.144262s infinite normal forwards running breath-d5b1d85f-23ca-4636-94c8-57e5d3ee0d86;"><path d="M81.56-0.67L81.56-0.67L81.56-0.67Q83.02-0.67 84.61-2.38L84.61-2.38L85.52-1.65L85.52-1.65Q85.09-0.79 83.63-0.12L83.63-0.12L83.63-0.12Q82.17 0.55 80.40 0.55L80.40 0.55L80.40 0.55Q74.85 0.55 74.85-4.45L74.85-4.45L74.85-4.45Q74.85-6.59 75.94-12.08L75.94-12.08L75.94-12.08Q77.04-17.57 77.04-19.28L77.04-19.28L77.04-19.28Q77.04-21.90 74.54-21.90L74.54-21.90L74.54-21.90Q72.53-21.90 70.67-19.28L70.67-19.28L70.67-19.28Q68.81-16.65 67.59-12.08L67.59-12.08L65.51-0.67L65.51-0.67Q67.41-0.85 68.63-2.38L68.63-2.38L69.54-1.65L69.54-1.65Q67.71 0.55 64.97 0.55L64.97 0.55L64.97 0.55Q62.22 0.55 60.66-0.85L60.66-0.85L60.66-0.85Q59.11-2.26 59.11-4.51L59.11-4.51L59.11-4.51Q59.11-5.37 60.09-11.22L60.09-11.22L62.10-22.51L62.10-22.51Q60.27-22.33 59.05-20.80L59.05-20.80L58.13-21.53L58.13-21.53Q59.96-23.73 62.74-23.73L62.74-23.73L62.74-23.73Q65.51-23.73 67.04-22.33L67.04-22.33L67.04-22.33Q68.56-20.92 68.56-18.36L68.56-18.36L68.56-18.00L68.56-18.00Q71.06-23.73 76.37-23.73L76.37-23.73L76.37-23.73Q79.97-23.73 81.98-21.69L81.98-21.69L81.98-21.69Q84.00-19.64 84.00-16.04L84.00-16.04L84.00-16.04Q84.00-14.15 82.84-8.75L82.84-8.75L82.84-8.75Q81.68-3.35 81.56-0.67" fill="#df1317" stroke="none" stroke-width="none" transform="translate(-73.23501586914062,13.906732482910156)" style="fill: rgb(228, 147, 75);"></path></g><g class="path" style="transform: scale(0.91); transform-origin: 21.345px 2.31673px; animation: 0.327869s linear -0.108197s infinite normal forwards running breath-d5b1d85f-23ca-4636-94c8-57e5d3ee0d86;"><path d="M99.67-1.65L99.67-1.65Q97.84 0.55 95.10 0.55L95.10 0.55L95.10 0.55Q92.35 0.55 90.80-0.85L90.80-0.85L90.80-0.85Q89.24-2.26 89.24-4.51L89.24-4.51L89.24-4.51Q89.24-5.31 90.22-11.16L90.22-11.16L92.23-22.08L89.67-22.08L89.79-23.18L92.41-23.18L92.41-23.18Q96.93-23.18 99.06-23.55L99.06-23.55L99.92-23.73L95.71-0.67L95.71-0.67Q97.54-0.85 98.76-2.38L98.76-2.38L99.67-1.65" fill="#df1317" stroke="none" stroke-width="none" transform="translate(-73.23501586914062,13.906732482910156)" style="fill: rgb(226, 187, 139);"></path></g><g class="path" style="transform: scale(0.91); transform-origin: 24.21px -18.8183px; animation: 0.327869s linear -0.0721311s infinite normal forwards running breath-d5b1d85f-23ca-4636-94c8-57e5d3ee0d86;"><path d="M94.31-29.59L94.31-29.59L94.31-29.59Q93.02-30.87 93.02-32.70L93.02-32.70L93.02-32.70Q93.02-34.53 94.31-35.84L94.31-35.84L94.31-35.84Q95.59-37.15 97.42-37.15L97.42-37.15L97.42-37.15Q99.25-37.15 100.56-35.84L100.56-35.84L100.56-35.84Q101.87-34.53 101.87-32.70L101.87-32.70L101.87-32.70Q101.87-30.87 100.56-29.59L100.56-29.59L100.56-29.59Q99.25-28.30 97.42-28.30L97.42-28.30L97.42-28.30Q95.59-28.30 94.31-29.59" fill="#df1317" stroke="none" stroke-width="none" transform="translate(-73.23501586914062,13.906732482910156)" style="fill: rgb(225, 231, 231);"></path></g><g class="path" style="transform: scale(0.91); transform-origin: 39.495px -2.19827px; animation: 0.327869s linear -0.0360656s infinite normal forwards running breath-d5b1d85f-23ca-4636-94c8-57e5d3ee0d86;"><path d="M103.82-23.18L106.93-23.18L108.58-32.21L108.58-32.21Q113.09-32.21 115.29-32.57L115.29-32.57L116.08-32.76L116.08-32.76Q115.23-28.49 114.19-23.18L114.19-23.18L121.76-23.18L121.63-22.08L114.01-22.08L114.01-22.08Q110.96-6.34 110.96-3.11L110.96-3.11L110.96-3.11Q110.96-1.16 113.03-1.16L113.03-1.16L113.03-1.16Q115.11-1.16 116.81-3.78L116.81-3.78L116.81-3.78Q118.52-6.41 119.25-9.46L119.25-9.46L120.35-9.09L120.35-9.09Q118.10 0.55 111.02 0.55L111.02 0.55L111.02 0.55Q108.09 0.55 106.14-1.07L106.14-1.07L106.14-1.07Q104.19-2.68 104.19-5.58L104.19-5.58L104.19-5.58Q104.19-8.48 106.69-22.08L106.69-22.08L103.70-22.08L103.82-23.18" fill="#df1317" stroke="none" stroke-width="none" transform="translate(-73.23501586914062,13.906732482910156)" style="fill: rgb(145, 188, 198);"></path></g><g class="path" style="transform: scale(0.91); transform-origin: 70.33px 2.04173px; animation: 0.327869s linear 0s infinite normal forwards running breath-d5b1d85f-23ca-4636-94c8-57e5d3ee0d86;"><path d="M138.04-20.98L151.65-23.73L142.68 0L135.48 0L142.68-20.68L138.35-19.76L138.04-20.98" fill="#df1317" stroke="none" stroke-width="none" transform="translate(-73.23501586914062,13.906732482910156)" style="fill: rgb(7, 171, 204);"></path></g></g>
</g>
</g>
<style id="breath-d5b1d85f-23ca-4636-94c8-57e5d3ee0d86" data-anikit="">@keyframes breath-d5b1d85f-23ca-4636-94c8-57e5d3ee0d86
{
  0% {
    animation-timing-function: cubic-bezier(0.9647,0.2413,-0.0705,0.7911);
    transform: scale(0.9099999999999999);
  }
  51% {
    animation-timing-function: cubic-bezier(0.9226,0.2631,-0.0308,0.7628);
    transform: scale(1.02994);
  }
  100% {
    transform: scale(0.9099999999999999);
  }
}</style></svg>